<?xml version="1.0" standalone="no"?>
<!DOCTYPE svg PUBLIC "-//W3C//DTD SVG 20010904//EN"
 "http://www.w3.org/TR/2001/REC-SVG-20010904/DTD/svg10.dtd">
<svg version="1.0" xmlns="http://www.w3.org/2000/svg"
 width="700.000000pt" height="700.000000pt" viewBox="0 0 700.000000 700.000000"
 preserveAspectRatio="xMidYMid meet">
<metadata>
Created by potrace 1.14, written by Peter Selinger 2001-2017
</metadata>
<g transform="translate(0.000000,700.000000) scale(0.100000,-0.100000)"
fill="#000000" stroke="none">
<path d="M3487 6644 c-1 -1 -47 -4 -102 -8 -110 -7 -119 -8 -254 -38 -209 -45
-440 -144 -618 -264 -320 -217 -554 -520 -671 -869 -39 -117 -50 -154 -58
-205 -2 -14 -7 -36 -10 -50 -14 -57 -29 -244 -28 -341 4 -339 104 -669 287
-946 30 -46 52 -83 48 -84 -3 0 -15 -2 -26 -4 -17 -3 -128 -15 -175 -20 -70
-7 -328 -58 -405 -80 -59 -17 -140 -68 -183 -115 -24 -26 -35 -30 -92 -31
-150 -6 -296 -108 -353 -249 -22 -55 -22 -56 -25 -798 l-2 -743 29 -30 c16
-16 36 -29 44 -29 12 0 16 -18 19 -85 l3 -86 -35 -17 c-19 -9 -41 -28 -47 -42
-16 -31 -17 -550 -1 -625 55 -267 341 -466 598 -416 85 16 99 19 154 35 28 8
63 17 79 20 15 4 39 8 55 11 15 3 43 10 62 15 19 4 57 11 83 15 27 3 57 8 68
10 123 24 432 24 589 1 152 -23 265 -52 585 -151 230 -72 412 -84 620 -41 41
8 183 46 285 76 58 17 112 33 120 35 8 1 40 10 70 19 84 24 278 64 345 71 33
4 78 9 100 11 49 6 252 6 321 0 85 -8 131 -15 259 -40 11 -2 76 -19 145 -36
407 -105 697 13 787 320 l22 75 1 1160 c0 1277 3 1227 -61 1327 -72 112 -183
179 -310 186 -73 4 -81 7 -104 34 -52 61 -153 114 -257 134 -34 6 -67 13 -123
24 -84 17 -98 20 -145 25 -25 3 -54 8 -65 10 -18 4 -58 8 -170 19 -36 4 -37 0
29 101 103 157 190 363 236 556 20 84 24 112 39 250 14 137 1 358 -31 499 -5
25 -12 56 -14 69 -13 64 -72 228 -120 328 -50 108 -183 321 -221 355 -22 21
-70 28 -102 16 -21 -8 -32 0 -96 64 -65 64 -72 75 -64 96 24 63 2 94 -135 184
-210 139 -431 224 -698 272 -14 2 -68 7 -120 11 -138 10 -158 12 -161 9z"/>
<path d="M5494 6632 c-16 -8 -31 -18 -34 -21 -3 -3 -83 -64 -178 -135 -95 -71
-182 -140 -192 -154 -58 -74 38 -177 118 -127 15 10 111 81 215 157 152 114
189 146 195 172 21 78 -55 144 -124 108z"/>
<path d="M1418 6629 c-36 -20 -53 -77 -36 -115 11 -23 373 -303 422 -325 55
-25 126 24 121 86 -1 19 -8 42 -16 51 -8 10 -103 84 -212 166 -204 153 -230
166 -279 137z"/>
<path d="M941 5871 c-35 -37 -37 -78 -8 -115 22 -27 37 -32 238 -73 118 -23
230 -45 249 -48 19 -3 40 -8 47 -10 21 -7 77 39 86 70 16 57 -21 107 -88 118
-16 3 -55 10 -85 17 -30 6 -66 13 -80 15 -14 3 -34 7 -45 9 -99 22 -235 46
-258 46 -19 0 -38 -10 -56 -29z"/>
<path d="M5910 5889 c-19 -5 -44 -10 -56 -13 -55 -11 -232 -46 -254 -50 -110
-19 -143 -37 -155 -83 -8 -35 11 -88 38 -102 34 -17 61 -16 202 13 72 15 141
29 155 32 14 2 45 9 70 14 25 5 60 12 79 15 48 8 69 21 87 56 33 64 -13 130
-90 128 -22 -1 -57 -5 -76 -10z"/>
<path d="M1225 5074 c-294 -117 -291 -115 -305 -159 -20 -62 25 -124 87 -120
20 2 94 29 168 61 17 7 55 22 85 34 30 11 64 25 75 30 11 5 57 23 102 41 97
37 118 56 118 109 0 44 -22 74 -65 88 -24 9 -60 -3 -265 -84z"/>
<path d="M5504 5158 c-47 -25 -62 -49 -60 -90 2 -23 11 -48 22 -58 22 -21 475
-206 524 -213 60 -10 115 69 89 127 -15 32 -37 43 -269 136 -255 103 -280 111
-306 98z"/>
</g>
</svg>
