<?xml version="1.0" encoding="UTF-8" standalone="no"?>
<!DOCTYPE svg PUBLIC "-//W3C//DTD SVG 1.1//EN" "http://www.w3.org/Graphics/SVG/1.1/DTD/svg11.dtd">
<svg width="100%" height="100%" viewBox="0 0 44 44" version="1.1" xmlns="http://www.w3.org/2000/svg" xmlns:xlink="http://www.w3.org/1999/xlink" xml:space="preserve" xmlns:serif="http://www.serif.com/" style="fill-rule:evenodd;clip-rule:evenodd;stroke-linecap:round;stroke-linejoin:round;stroke-miterlimit:1.5;">
    <g id="Brain-Puzzle" serif:id="Brain Puzzle" transform="matrix(1.746,0,0,1.88482,2.02225,-1.81795)">
        <g id="gelb">
            <path d="M11.775,10.077C11.755,9.515 11.276,9.078 10.714,9.078L10.328,9.078C10.163,9.078 10.028,8.944 10.028,8.778L10.028,7.44C10.028,6.864 9.804,6.335 9.436,5.943L8.518,5.943L6.455,7.142C6.455,7.142 5.145,9.677 4.894,9.753C4.643,9.829 4.049,11.349 4.018,11.433C3.986,11.517 3.08,12.709 3.08,12.709L3.445,14.005L3.08,14.236L9.455,14.236L10.028,14.005L10.028,11.452C10.028,11.286 10.163,11.152 10.328,11.152L10.739,11.152C11.324,11.152 11.796,10.667 11.775,10.077Z" style="fill:rgb(255,99,110);fill-rule:nonzero;"/>
            <path d="M5.392,10.945C5.57,10.861 5.665,10.664 5.628,10.47C5.28,8.645 6.7,6.913 8.586,6.932C8.768,6.934 8.93,6.819 8.995,6.648C9.095,6.384 9.246,6.145 9.436,5.943C9.059,5.541 8.532,5.284 7.942,5.271C7.011,5.251 6.212,5.829 5.901,6.648C5.836,6.819 5.674,6.934 5.492,6.932C3.606,6.913 2.187,8.645 2.534,10.47C2.571,10.664 2.476,10.861 2.298,10.945C1.148,11.484 0.352,12.651 0.352,14.005L0.799,14.236L3.893,14.236L3.445,14.005C3.446,12.651 4.242,11.484 5.392,10.945Z" style="fill:rgb(255,70,84);fill-rule:nonzero;"/>
        </g>
        <path id="blau" d="M19.391,14.005L15.256,14.005C15.09,14.005 14.956,14.139 14.956,14.305L14.956,14.691C14.956,15.253 14.518,15.732 13.957,15.752C13.367,15.773 12.882,15.301 12.882,14.716L12.882,14.305C12.882,14.139 12.748,14.005 12.582,14.005L10.029,14.005L9.705,14.339L9.705,16.486L8.783,16.486L8.002,17.499L8.002,18.372L8.799,19.158L9.69,19.158L9.69,20.189L10.029,20.571C10.029,21.736 10.949,22.714 12.114,22.739C13.046,22.759 13.845,22.181 14.156,21.362C14.22,21.192 14.383,21.076 14.565,21.078C16.45,21.097 17.87,19.366 17.523,17.54C17.486,17.347 17.581,17.149 17.759,17.065C18.816,16.569 19.574,15.543 19.69,14.329C19.706,14.155 19.566,14.005 19.391,14.005Z" style="fill:rgb(96,185,254);fill-rule:nonzero;"/>
        <g transform="matrix(0.352247,0.462253,-0.499005,0.326303,8.96815,-6.58033)">
            <path d="M39.39,13.043C40.52,13.443 41.098,14.256 41.093,15.507" style="fill:none;stroke:black;stroke-width:1.13px;"/>
        </g>
        <g id="grün">
            <path d="M7.175,13.705L7.175,13.319C7.175,12.757 6.738,12.278 6.176,12.258C5.586,12.237 5.101,12.709 5.101,13.295L5.101,13.705C5.101,13.871 4.967,14.005 4.801,14.005L3.445,14.005L3.08,14.236C3.08,14.236 3.799,16.673 3.986,17.017C4.174,17.361 5.674,19.736 5.674,19.923C5.674,20.111 6.861,21.361 6.861,21.361L9.436,22.067C9.804,21.676 10.028,21.146 10.028,20.571L10.028,19.232C10.028,19.067 9.894,18.932 9.728,18.932L9.318,18.932C8.733,18.932 8.261,18.448 8.282,17.858C8.302,17.296 8.78,16.858 9.343,16.858L9.728,16.858C9.894,16.858 10.028,16.724 10.028,16.558L10.028,14.005L7.475,14.005C7.309,14.005 7.175,13.871 7.175,13.705Z" style="fill:rgb(255,224,47);fill-rule:nonzero;"/>
            <path d="M8.995,21.362C8.93,21.192 8.768,21.076 8.585,21.078C6.701,21.097 5.28,19.366 5.628,17.54C5.665,17.347 5.57,17.149 5.391,17.065C4.242,16.526 3.445,15.359 3.445,14.005L0.352,14.005C0.352,15.359 1.148,16.526 2.298,17.065C2.476,17.149 2.571,17.347 2.534,17.54C2.187,19.366 3.607,21.097 5.492,21.078C5.674,21.076 5.836,21.192 5.901,21.362C6.212,22.181 7.011,22.759 7.942,22.739C8.532,22.726 9.059,22.469 9.436,22.067C9.246,21.865 9.095,21.627 8.995,21.362Z" style="fill:rgb(251,199,0);fill-rule:nonzero;"/>
            <g transform="matrix(0.0406028,0.450892,-0.469208,0.0362575,21.3377,2.34512)">
                <path d="M28.92,35.701C30.682,36.011 32.176,35.478 33.332,33.885" style="fill:none;stroke:black;stroke-width:1.43px;"/>
            </g>
        </g>
        <g id="rotes-stück" serif:id="rotes stück" transform="matrix(1,0,0,1,-1.22161,1.13164)">
            <path d="M23.647,9.671C23.532,8.457 22.773,7.431 21.717,6.935C21.538,6.851 21.443,6.654 21.48,6.46C21.828,4.635 20.408,2.903 18.523,2.922C18.34,2.924 18.178,2.809 18.113,2.638C17.968,2.254 17.714,1.923 17.39,1.682L16.713,1.682L16.174,2.978L16.174,5.271L17.346,5.626L16.174,6.962L16.174,9.493L16.498,9.995L16.539,9.995C16.629,9.995 16.709,10.035 16.764,10.097L18.988,10.097C19.043,10.035 19.124,9.995 19.213,9.995L23.348,9.995C23.523,9.995 23.664,9.846 23.647,9.671Z" style="fill:rgb(115,213,120);fill-rule:nonzero;"/>
            <path d="M19.071,9.995L16.817,9.995C16.652,9.995 16.517,9.861 16.517,9.695L16.517,7.442C16.517,7.276 16.652,7.142 16.817,7.142L17.228,7.142C17.813,7.142 18.285,6.657 18.264,6.067C18.244,5.505 17.765,5.068 17.203,5.068L16.817,5.068C16.652,5.068 16.517,4.934 16.517,4.768L16.517,3.43C16.517,2.719 16.86,2.079 17.391,1.682C17.024,1.409 16.567,1.251 16.072,1.261C14.907,1.287 13.986,2.264 13.986,3.43L13.986,4.768C13.986,4.934 14.12,5.068 14.286,5.068L14.672,5.068C15.234,5.068 15.713,5.505 15.733,6.067C15.754,6.657 15.282,7.142 14.697,7.142L14.286,7.142C14.12,7.142 13.986,7.276 13.986,7.442L13.986,9.695C13.986,9.861 14.12,9.995 14.286,9.995L16.539,9.995C16.705,9.995 16.839,10.13 16.839,10.295L16.839,10.681C16.839,11.243 17.277,11.722 17.839,11.742C18.428,11.763 18.913,11.291 18.913,10.706L18.913,10.295C18.913,10.154 19.011,10.036 19.142,10.004C19.119,9.999 19.095,9.995 19.071,9.995Z" style="fill:rgb(0,198,58);fill-rule:nonzero;"/>
            <path d="M23.997,9.638C23.873,8.333 23.056,7.175 21.866,6.617C21.835,6.602 21.818,6.564 21.825,6.526C22.214,4.486 20.636,2.571 18.554,2.571C18.542,2.571 18.518,2.571 18.518,2.571C18.485,2.571 18.455,2.548 18.442,2.513C18.076,1.548 17.147,0.909 16.118,0.909C16.1,0.909 16.082,0.909 16.064,0.91C14.724,0.939 13.634,2.069 13.634,3.43L13.634,4.768C13.634,5.127 13.927,5.419 14.286,5.419L14.671,5.419C15.05,5.419 15.368,5.716 15.381,6.08C15.395,6.472 15.082,6.79 14.696,6.79L14.286,6.79C13.927,6.79 13.634,7.082 13.634,7.442L13.634,9.695C13.634,10.054 13.927,10.347 14.286,10.347L16.488,10.347L16.488,10.681C16.488,11.433 17.088,12.067 17.826,12.093C18.615,12.121 19.265,11.492 19.265,10.706L19.265,10.347L20.328,10.347C20.522,10.347 20.68,10.189 20.68,9.995C20.68,9.801 20.522,9.643 20.328,9.643L19.213,9.643C18.854,9.643 18.562,9.936 18.562,10.295L18.562,10.706C18.562,11.093 18.241,11.404 17.851,11.39C17.487,11.378 17.191,11.059 17.191,10.681L17.191,10.295C17.191,9.936 16.898,9.643 16.539,9.643L14.337,9.643L14.337,7.493L14.696,7.493C15.482,7.493 16.112,6.844 16.084,6.055C16.058,5.317 15.424,4.716 14.671,4.716L14.337,4.716L14.337,3.43C14.337,2.448 15.119,1.634 16.079,1.613C16.832,1.598 17.517,2.059 17.784,2.762C17.901,3.069 17.981,4.242 18.305,4.242L18.312,4.242C18.322,4.242 18.331,4.241 18.34,4.242C18.982,4.351 18.706,3.233 18.717,3.233C20.35,3.24 21.438,4.802 21.135,6.394C21.067,6.749 21.245,7.102 21.567,7.253C22.515,7.698 23.171,8.61 23.291,9.643L21.969,9.643C21.775,9.643 21.617,9.801 21.617,9.995C21.617,10.189 21.775,10.347 21.969,10.347L23.348,10.347C23.731,10.347 24.033,10.018 23.997,9.638Z" style="fill-rule:nonzero;"/>
            <g transform="matrix(0.610806,0,0,0.56582,-4.56573,-0.878548)">
                <path d="M39.39,13.043C40.52,13.443 41.098,14.256 41.093,15.507" style="fill:none;stroke:black;stroke-width:1.13px;"/>
            </g>
        </g>
        <path d="M19.39,13.653L15.255,13.653C14.896,13.653 14.604,13.946 14.604,14.305L14.604,14.691C14.604,15.069 14.308,15.387 13.944,15.4C13.553,15.413 13.233,15.104 13.233,14.715L13.233,14.305C13.233,13.946 12.941,13.653 12.582,13.653L10.38,13.653L10.38,11.503L10.739,11.503C11.119,11.503 11.474,11.352 11.738,11.079C12.002,10.805 12.14,10.445 12.126,10.064C12.1,9.326 11.466,8.726 10.714,8.726L10.38,8.726L10.38,7.439C10.38,6.079 9.29,4.949 7.95,4.92C6.899,4.895 5.944,5.541 5.572,6.523C5.559,6.558 5.528,6.581 5.496,6.581C5.496,6.581 5.495,6.581 5.495,6.581C5.484,6.581 5.472,6.58 5.46,6.58C4.476,6.58 3.548,7.015 2.912,7.776C2.265,8.549 2.002,9.555 2.189,10.535C2.196,10.574 2.179,10.612 2.148,10.627C0.843,11.239 0,12.565 0,14.005C0,15.445 0.843,16.771 2.148,17.383C2.179,17.398 2.196,17.436 2.189,17.474C1.8,19.514 3.378,21.429 5.461,21.429C5.472,21.429 5.496,21.429 5.496,21.429C5.529,21.429 5.559,21.452 5.572,21.487C5.938,22.452 6.867,23.091 7.896,23.091C8.794,23.091 9.591,22.596 10.028,21.855C10.455,22.577 11.227,23.071 12.107,23.09C13.142,23.114 14.108,22.48 14.484,21.487C14.497,21.452 14.528,21.429 14.561,21.429C14.561,21.429 14.584,21.429 14.595,21.429C15.149,21.429 15.695,21.291 16.178,21.027C16.348,20.934 16.411,20.721 16.318,20.55C16.225,20.38 16.012,20.317 15.841,20.41C15.456,20.62 15.038,20.726 14.597,20.726C14.587,20.726 14.578,20.726 14.569,20.726C14.566,20.726 14.56,20.728 14.561,20.726C14.578,20.5 14.555,20.287 14.468,19.883C14.418,19.649 14.261,19.547 14.037,19.573C13.854,19.594 13.729,19.712 13.764,19.911C13.849,20.389 13.914,20.94 13.827,21.238C13.616,21.958 12.874,22.401 12.122,22.387C11.161,22.366 10.38,21.552 10.38,20.57L10.38,19.232C10.38,18.873 10.088,18.581 9.728,18.581L9.318,18.581C8.932,18.581 8.619,18.262 8.633,17.87C8.646,17.506 8.964,17.21 9.343,17.21L9.728,17.21C10.065,17.21 10.343,16.953 10.377,16.625C10.379,16.603 10.38,16.581 10.38,16.558L10.38,14.356L12.53,14.356L12.53,14.715C12.53,15.502 13.181,16.131 13.969,16.103C14.707,16.077 15.307,15.443 15.307,14.691L15.307,14.356L19.333,14.356C19.213,15.39 18.557,16.302 17.61,16.746C17.287,16.898 17.11,17.251 17.177,17.606C17.293,18.216 17.186,18.851 16.875,19.394C16.778,19.563 16.836,19.777 17.005,19.874C17.173,19.97 17.388,19.912 17.485,19.743C17.879,19.055 18.015,18.249 17.868,17.474C17.86,17.436 17.877,17.398 17.908,17.383C19.099,16.825 19.915,15.667 20.04,14.362C20.057,14.182 19.996,14.002 19.874,13.867C19.751,13.731 19.574,13.653 19.39,13.653ZM9.677,16.507L9.343,16.507C8.59,16.507 7.956,17.107 7.93,17.845C7.902,18.633 8.531,19.284 9.318,19.284L9.677,19.284L9.677,20.571C9.677,21.552 8.895,22.366 7.935,22.387C7.182,22.403 6.497,21.942 6.23,21.238C6.113,20.931 5.819,20.726 5.496,20.726L5.488,20.726C3.839,20.746 2.571,19.225 2.88,17.606C2.901,17.491 3.753,17.809 4.268,17.834C4.434,17.842 4.555,17.756 4.585,17.608C4.614,17.46 4.492,17.315 4.362,17.287C3.855,17.175 2.594,16.816 2.447,16.747C1.495,16.3 0.846,15.386 0.724,14.357L4.801,14.357C5.16,14.357 5.453,14.064 5.453,13.705L5.453,13.319C5.453,12.949 5.743,12.611 6.139,12.61C6.532,12.612 6.823,12.947 6.823,13.319L6.823,13.705C6.823,14.064 7.116,14.357 7.475,14.357L9.677,14.357L9.677,16.507ZM10.328,10.8C9.969,10.8 9.677,11.092 9.677,11.452L9.677,13.653L7.526,13.653L7.526,13.294C7.526,12.523 6.901,11.904 6.136,11.906C5.405,11.907 4.749,12.482 4.749,13.319L4.749,13.653L0.724,13.653C0.846,12.624 1.495,11.71 2.447,11.263C2.769,11.112 4.102,10.589 4.042,10.285C3.941,9.776 2.865,10.348 2.858,10.298C2.763,9.573 2.974,8.798 3.451,8.227C3.954,7.626 4.741,7.217 5.517,7.217C5.526,7.217 5.222,8.116 5.785,8.042L5.793,8.042C6.116,8.042 6.113,7.079 6.23,6.772C6.497,6.068 7.182,5.608 7.935,5.623C8.895,5.643 9.677,6.458 9.677,7.439L9.677,8.778C9.677,9.137 9.969,9.429 10.328,9.429L10.714,9.429C11.092,9.429 11.411,9.725 11.424,10.089C11.43,10.278 11.362,10.456 11.232,10.591C11.102,10.726 10.926,10.8 10.739,10.8L10.328,10.8Z" style="fill-rule:nonzero;"/>
    </g>
</svg>
