<svg width="40" height="35" viewBox="0 0 40 35" fill="none" xmlns="http://www.w3.org/2000/svg">
    <path d="M38.4434 33.722H37.8101V18.1768H38.4434C38.6318 18.1768 38.8074 18.0815 38.9101 17.9235C39.0129 17.7655 39.0286 17.5663 38.9521 17.3941L36.5723 12.0396C36.483 11.8386 36.2836 11.709 36.0636 11.709H24.3952L20.5567 7.87043V5.08797H24.1647C24.4721 5.08797 24.7213 4.83874 24.7213 4.53133V1.55664C24.7213 1.24923 24.4721 1 24.1647 1H20C19.6926 1 19.4434 1.24923 19.4434 1.55664V7.8705L15.6048 11.709H3.93641C3.71642 11.709 3.51707 11.8386 3.42771 12.0396L1.04796 17.3941C0.971442 17.5663 0.987251 17.7655 1.0899 17.9235C1.19254 18.0815 1.36822 18.1768 1.55666 18.1768H2.18989V33.7221H1.55666C1.24924 33.7221 1.00002 33.9713 1.00002 34.2787C1.00002 34.5861 1.24924 34.8354 1.55666 34.8354H38.4434C38.7508 34.8354 39 34.5861 39 34.2787C39 33.9713 38.7508 33.722 38.4434 33.722ZM23.608 3.97469H20.5567V2.11328H23.608V3.97469ZM4.29815 12.8223H14.4915L10.2503 17.0635H2.41322L4.29815 12.8223ZM3.30317 18.1768H10.4808C10.6284 18.1768 10.77 18.1182 10.8744 18.0138L20 8.88819L29.1256 18.0138C29.2299 18.1182 29.3715 18.1768 29.5192 18.1768H33.6838C33.9912 18.1768 34.2404 17.9276 34.2404 17.6202C34.2404 17.3128 33.9912 17.0635 33.6838 17.0635H29.7498L25.5085 12.8223H35.7019L37.5869 17.0635H36.0636C35.7562 17.0635 35.507 17.3128 35.507 17.6202C35.507 17.9276 35.7562 18.1768 36.0636 18.1768H36.6969V33.7221H25.3162V31.899C25.3162 31.5916 25.067 31.3423 24.7596 31.3423H24.1264V26.5445C24.1264 26.237 23.8771 25.9878 23.5697 25.9878H16.4304C16.123 25.9878 15.8738 26.237 15.8738 26.5445V31.3423H15.2405C14.9331 31.3423 14.6839 31.5916 14.6839 31.899V33.7221H3.30317V18.1768ZM23.0131 27.101V31.3423H20.5567V27.101H23.0131ZM19.4434 31.3423H16.987V27.101H19.4434V31.3423ZM24.2029 32.4555V33.722H15.7971V32.4555H24.2029Z"
          fill="black"/>
    <path d="M20.0001 19.7698C22.2753 19.7698 24.1264 17.9187 24.1264 15.6434C24.1264 13.3681 22.2754 11.5171 20.0001 11.5171C17.7247 11.5171 15.8737 13.3682 15.8737 15.6434C15.8737 17.9187 17.7248 19.7698 20.0001 19.7698ZM20.0001 12.6304C21.6614 12.6304 23.0131 13.982 23.0131 15.6434C23.0131 17.3048 21.6614 18.6565 20.0001 18.6565C18.3387 18.6565 16.987 17.3049 16.987 15.6434C16.987 13.982 18.3387 12.6304 20.0001 12.6304Z"
          fill="black"/>
    <path d="M20 17.39C20.3074 17.39 20.5566 17.1408 20.5566 16.8333V15.9875L21.4388 15.5464C21.7138 15.4089 21.8253 15.0746 21.6877 14.7996C21.5503 14.5246 21.2159 14.4131 20.9409 14.5507L19.7511 15.1456C19.5625 15.2399 19.4434 15.4326 19.4434 15.6435V16.8333C19.4434 17.1408 19.6926 17.39 20 17.39Z"
          fill="black"/>
    <path d="M13.4557 25.9878H5.1264C4.81899 25.9878 4.56976 26.237 4.56976 26.5444V30.1141C4.56976 30.4215 4.81899 30.6707 5.1264 30.6707H6.3165C6.62392 30.6707 6.87314 30.4215 6.87314 30.1141C6.87314 29.8067 6.62392 29.5575 6.3165 29.5575H5.68304V27.101H8.7344V29.5575H8.69618C8.38876 29.5575 8.13954 29.8067 8.13954 30.1141C8.13954 30.4215 8.38876 30.6707 8.69618 30.6707H13.4557C13.7631 30.6707 14.0123 30.4215 14.0123 30.1141V26.5444C14.0123 26.237 13.7631 25.9878 13.4557 25.9878ZM12.899 29.5575H9.84768V27.101H12.899V29.5575Z"
          fill="black"/>
    <path d="M26.5444 30.6707H34.8736C35.1811 30.6707 35.4303 30.4215 35.4303 30.1141V26.5444C35.4303 26.237 35.1811 25.9878 34.8736 25.9878H26.5444C26.237 25.9878 25.9877 26.237 25.9877 26.5444V30.1141C25.9877 30.4215 26.237 30.6707 26.5444 30.6707ZM34.317 29.5575H31.2657V27.101H34.317V29.5575ZM27.101 27.101H30.1524V29.5575H27.101V27.101Z"
          fill="black"/>
    <path d="M10.4167 24.679V20.821C10.4167 20.5898 10.5982 20.4167 10.8048 20.4167H29.1952C29.4018 20.4167 29.5833 20.5898 29.5833 20.821V24.679C29.5833 24.9102 29.4018 25.0833 29.1952 25.0833H10.8048C10.5982 25.0833 10.4167 24.9101 10.4167 24.679Z"
          stroke="black" stroke-width="0.833333"/>
    <path d="M27.883 23.5474C27.8824 23.5474 27.8818 23.5474 27.8812 23.5474C27.7422 23.5482 27.5689 23.5489 27.4246 23.5492V21.6428C27.4246 21.4728 27.2895 21.3349 27.1228 21.3349C26.9561 21.3349 26.821 21.4728 26.821 21.6428V23.8553C26.821 24.0052 26.9269 24.1334 27.0718 24.1587C27.0936 24.1625 27.1088 24.1652 27.3494 24.1652C27.466 24.1652 27.6356 24.1645 27.8846 24.1631C28.0512 24.1622 28.1856 24.0236 28.1847 23.8535C28.1838 23.6841 28.0489 23.5474 27.883 23.5474Z"
          fill="black"/>
    <path d="M19.133 21.3349C18.9663 21.3349 18.8312 21.4728 18.8312 21.6428V22.4041H17.9327V21.6428C17.9327 21.4728 17.7976 21.3349 17.6309 21.3349C17.4642 21.3349 17.3291 21.4728 17.3291 21.6428V23.8572C17.3291 24.0272 17.4642 24.165 17.6309 24.165C17.7976 24.165 17.9327 24.0272 17.9327 23.8572V23.0199H18.8312V23.8572C18.8312 24.0272 18.9663 24.165 19.133 24.165C19.2998 24.165 19.4349 24.0272 19.4349 23.8572V21.6428C19.4349 21.4728 19.2997 21.3349 19.133 21.3349Z"
          fill="black"/>
    <path d="M16.6583 23.3088C16.5306 23.1995 16.3402 23.2164 16.2331 23.3467C16.2151 23.3686 16.1956 23.389 16.1754 23.4074C16.0718 23.5015 15.9389 23.5493 15.7805 23.5493C15.3485 23.5493 14.9969 23.1907 14.9969 22.75C14.9969 22.3092 15.3484 21.9507 15.7805 21.9507C15.9375 21.9507 16.0889 21.9978 16.2184 22.087C16.3565 22.1822 16.5441 22.1452 16.6374 22.0043C16.7307 21.8633 16.6944 21.672 16.5562 21.5768C16.3267 21.4186 16.0584 21.3349 15.7805 21.3349C15.0156 21.3349 14.3933 21.9697 14.3933 22.75C14.3933 23.5302 15.0156 24.165 15.7805 24.165C16.0871 24.165 16.3625 24.062 16.5769 23.8672C16.6189 23.829 16.6587 23.7871 16.6954 23.7425C16.8026 23.6123 16.7859 23.418 16.6583 23.3088Z"
          fill="black"/>
    <path d="M13.1663 22.4786C12.9049 22.3802 12.6611 22.2732 12.581 22.2374C12.5387 22.2006 12.538 22.1518 12.5418 22.1245C12.5465 22.0913 12.5706 22.0101 12.6931 21.9724C12.9823 21.8837 13.2533 22.1003 13.2624 22.1076C13.39 22.2154 13.5791 22.1982 13.6859 22.0686C13.7931 21.9384 13.7767 21.7442 13.6491 21.6348C13.6281 21.6168 13.1275 21.1958 12.519 21.3828C12.2079 21.4784 11.9876 21.7291 11.9443 22.037C11.9036 22.3266 12.0267 22.6052 12.2656 22.7641C12.279 22.773 12.2929 22.7807 12.3075 22.7874C12.3201 22.7931 12.6199 22.9293 12.9575 23.0563C13.0261 23.0821 13.2481 23.1777 13.2226 23.3231C13.2032 23.4343 13.0673 23.5493 12.8734 23.5493C12.6661 23.5493 12.467 23.4644 12.3406 23.3221C12.2287 23.1962 12.0379 23.1866 11.9143 23.3007C11.7908 23.4149 11.7814 23.6096 11.8933 23.7356C12.1358 24.0085 12.493 24.165 12.8734 24.165C13.3457 24.165 13.7424 23.8564 13.8169 23.4314C13.8731 23.1103 13.7317 22.6913 13.1663 22.4786Z"
          fill="black"/>
    <path d="M21.4285 21.3349C20.6637 21.3349 20.0414 21.9697 20.0414 22.75C20.0414 23.5302 20.6637 24.165 21.4285 24.165C22.1934 24.165 22.8157 23.5303 22.8157 22.75C22.8157 21.9697 22.1934 21.3349 21.4285 21.3349ZM21.4285 23.5493C20.9965 23.5493 20.645 23.1907 20.645 22.75C20.645 22.3092 20.9965 21.9507 21.4285 21.9507C21.8606 21.9507 22.2121 22.3093 22.2121 22.75C22.2121 23.1907 21.8606 23.5493 21.4285 23.5493Z"
          fill="black"/>
    <path d="M24.7961 21.3349C24.0312 21.3349 23.4089 21.9697 23.4089 22.75C23.4089 23.5302 24.0312 24.165 24.7961 24.165C25.561 24.165 26.1833 23.5303 26.1833 22.75C26.1833 21.9697 25.561 21.3349 24.7961 21.3349ZM24.7961 23.5493C24.3641 23.5493 24.0126 23.1907 24.0126 22.75C24.0126 22.3092 24.364 21.9507 24.7961 21.9507C25.2282 21.9507 25.5796 22.3093 25.5796 22.75C25.5796 23.1907 25.2281 23.5493 24.7961 23.5493Z"
          fill="black"/>
</svg>
