<?xml version="1.0" encoding="UTF-8" standalone="no"?>
<!DOCTYPE svg PUBLIC "-//W3C//DTD SVG 1.1//EN" "http://www.w3.org/Graphics/SVG/1.1/DTD/svg11.dtd">
<svg width="100%" height="100%" viewBox="0 0 1000 1000" version="1.1" xmlns="http://www.w3.org/2000/svg" xmlns:xlink="http://www.w3.org/1999/xlink" xml:space="preserve" xmlns:serif="http://www.serif.com/" style="fill-rule:evenodd;clip-rule:evenodd;stroke-linejoin:round;stroke-miterlimit:2;">
    <g id="Feiernder-Drache-mit-Buch.png" serif:id="Feiernder Drache mit Buch.png">
        <g id="Schatten" transform="matrix(1.90411,0,0,1.585366,-716.003641,-547.99075)">
            <ellipse cx="637.784" cy="931.292" rx="155.733" ry="14.578" style="fill:rgb(101,61,0);fill-opacity:0.41;"/>
        </g>
        <g id="Konfetti">
            <path d="M129.042,785.521C128.629,783.581 125.997,771.233 108.504,771.648C57.707,772.852 73.407,714.504 100.451,706.344C101.737,705.956 115.223,708.428 97.938,722.95C94.731,725.645 77.587,747.648 97.524,755.43C99.756,756.301 132.881,751.819 141.439,775.525C149.858,798.847 131.696,812.379 125.899,818.851C109.266,837.424 131.411,842.529 133.601,847.448C138.427,858.288 118.869,859.12 109.872,845.249C92.5,818.466 127.801,806.755 129.042,785.521Z" style="fill:rgb(250,180,19);"/>
            <path d="M124.341,177.691C127.55,180.347 146.72,194.009 137.326,202.291C130.211,208.564 123.834,196.648 98.152,177.965C92.62,173.941 90.07,173.971 92.647,167.567C98.578,152.832 119.902,174.254 124.341,177.691Z" style="fill:rgb(77,131,54);"/>
            <path d="M842.644,708.333C823.405,692.663 822.179,693.052 822.165,689.506C822.086,669.413 868.294,704.832 866.666,715.521C864.327,730.874 850.075,714.303 842.644,708.333Z" style="fill:rgb(22,138,191);"/>
            <path d="M166.459,87.788C176.456,91.405 197.61,119.471 194.697,125.59C192.055,131.139 185.821,133.723 180.989,127.157C159.186,97.525 158.412,97.667 158.661,94.512C159.133,88.523 160.453,88.605 166.459,87.788Z" style="fill:rgb(238,79,31);"/>
            <path d="M623.721,83.621C612.446,105.678 606.757,119.951 599.583,110.44C594.435,103.615 615.171,64.764 621.506,63.531C624.945,62.861 631.958,67.714 628.302,75.408C627.979,76.087 627.962,76.016 623.721,83.621Z" style="fill:rgb(73,127,51);"/>
            <path d="M920.433,252.373C907.914,257.797 903.651,246.83 913.826,238.889C944.216,215.17 948.014,221.797 949.546,224.47C953.815,231.917 949.909,232.899 924.251,250.121C923.957,250.318 923.968,250.287 920.433,252.373Z" style="fill:rgb(238,79,31);"/>
            <path d="M707.261,630.688C706.549,629.787 699.844,621.284 703.805,616.757C709.858,609.838 721.285,624.699 724.047,627.895C732.795,638.019 742.751,645.044 739.124,651.253C732.32,662.898 714.4,639.012 707.261,630.688Z" style="fill:rgb(238,78,31);"/>
            <path d="M915.935,817.538C912.545,833.886 899.151,814.635 881.805,800.148C872.233,792.154 878.934,781.501 891.282,789.836C901.326,796.617 909.279,805.787 910.648,807.366C914.553,811.87 915.512,811.485 915.935,817.538Z" style="fill:rgb(238,79,31);"/>
            <path d="M103.311,291.92C100.993,290.804 85.065,283.129 74.806,277.023C73.888,276.477 63.945,270.559 72.729,263.828C76.511,260.93 113.865,278.666 113.428,287.502C113.067,294.777 110.242,294.153 103.311,291.92Z" style="fill:rgb(250,181,20);"/>
            <path d="M788.328,583.643C799.106,598.737 784.908,600.588 779.614,594.397C769.433,582.493 769.752,582.329 758.761,571.255C752.22,564.664 758.334,552.44 770.389,563.625C771.965,565.088 776.52,569.314 788.328,583.643Z" style="fill:rgb(94,134,42);"/>
            <path d="M210.585,835.626C211.263,835.264 216.69,832.374 220.192,835.797C226.767,842.222 202.573,872.524 195.532,871.244C181.634,868.715 201.215,843.524 210.585,835.626Z" style="fill:rgb(24,139,192);"/>
            <path d="M917.402,83.406C923.857,77.318 923.78,77.349 924.624,76.655C933.391,69.439 939.905,82.536 932.157,89.084C915.388,103.256 913.669,109.228 908.411,107.822C895.281,104.312 914.329,86.756 917.402,83.406Z" style="fill:rgb(251,182,22);"/>
            <path d="M89.558,583.593C71.756,594.223 72.034,580.513 75.923,575.885C76.977,574.63 97.08,559.072 101.424,559.934C106.927,561.025 110.157,568.057 104.164,573.13C101.555,575.337 90.742,582.778 89.558,583.593Z" style="fill:rgb(239,80,31);"/>
            <path d="M467.079,69.5C467.086,69.427 466.642,59.853 470.752,56.904C473.421,54.989 477.036,56.181 477.555,56.352C481.938,57.797 484.184,92.59 477.508,94.525C466.618,97.681 467.58,77.896 467.079,69.5Z" style="fill:rgb(251,182,21);"/>
            <path d="M544.886,837.512C545.099,836.551 545.723,830.238 554.483,832.547C560.095,834.026 565.453,866.236 559.55,868.603C548.723,872.944 546.015,846.607 544.886,837.512Z" style="fill:rgb(93,136,43);"/>
            <path d="M929.516,343.798C938.555,343.355 938.686,342.618 941.284,343.952C942.016,344.328 943.89,345.771 944.52,347.492C949.874,362.129 909.381,357.889 906.888,352.341C902.902,343.471 923.557,344.392 929.516,343.798Z" style="fill:rgb(25,139,192);"/>
            <path d="M586.196,191.412C591.228,178.102 601.242,163.35 608.366,173.593C611.692,178.374 597.374,198.706 594.607,199.81C585.141,203.589 586.114,192.359 586.196,191.412Z" style="fill:rgb(251,182,22);"/>
            <path d="M917.375,497.575C904.629,478.943 882.085,485.153 878.331,476.586C869.04,455.38 937.403,470.001 932.423,507.489C928.592,536.326 893.861,527.469 885.435,530.349C865.365,537.21 899.358,561.732 904.233,572.606C919.805,607.337 866.736,623.608 862.261,609.578C859.022,599.423 874.733,603.238 883.233,598.03C913.91,579.23 861.719,566.617 865.303,538.471C869.145,508.303 906.225,516.173 912.512,514.549C924.268,511.513 918.001,498.842 917.375,497.575Z" style="fill:rgb(250,180,20);"/>
        </g>
        <g id="Schwanz">
            <path d="M355.379,642.125C354.339,646.916 352.231,655.111 352.231,655.111C351.901,654.968 341.133,649.202 329.554,647.204C316.847,645.011 328.18,657.439 332.072,668.69C337.912,685.57 335.885,696.322 335.897,696.415C335.995,697.177 346.225,693.13 347.856,688.416C348.299,688.922 352.676,691.976 355.28,692.566C361.323,693.936 371.066,695.988 371.816,696.367C371.945,699.627 371.92,701.102 371.272,704.296C369.11,709.248 357.679,732.902 352.416,757.488C341.993,806.175 361.134,833.934 363.532,836.094C356.683,841.583 352.281,838.831 349.151,838.283C345.326,830.523 343.875,834.366 342.075,824.334C342.19,823.449 342.382,821.975 339.553,813.476C338.648,810.757 299.325,820.359 255.674,803.021C167.059,767.821 172.845,694.352 171.681,691.418C170.544,688.551 107.889,690.923 145.604,636.57C198.522,560.306 237.925,580.445 234.023,596.384C233.613,598.056 216.775,629.77 214.251,649.565C213.172,658.027 213.857,660.333 214.175,662.502C214.175,662.502 214.728,664.367 214.776,664.529C218.038,687.533 239.591,701.834 240.487,702.525C242.831,704.302 257.856,712.45 269.196,712.888C288.06,713.617 308.364,709.635 311.63,708.65C321.503,705.337 324.075,705.112 324.027,700.252C325.835,674.087 305.852,653.451 310.35,641.433C316.242,625.69 348.387,639.871 355.379,642.125Z" style="fill:rgb(5,44,70);"/>
            <path d="M199.314,645.076C200.651,658.709 200.827,689.045 232.142,711.979C287.295,752.37 358.384,698.691 358.451,698.725C360.004,699.511 356.339,706.128 347.707,729.578C337.998,755.954 336.251,782.837 335.944,787.56C335.979,791.09 337.171,797.594 334.42,798.139C288.863,807.157 166.842,777.373 187.449,668.493C188.5,662.941 194.039,652.517 194.474,649.476C196.766,647.016 196.536,646.937 199.314,645.076Z" style="fill:rgb(20,139,191);"/>
            <clipPath id="_clip1">
                <path d="M199.314,645.076C200.651,658.709 200.827,689.045 232.142,711.979C287.295,752.37 358.384,698.691 358.451,698.725C360.004,699.511 356.339,706.128 347.707,729.578C337.998,755.954 336.251,782.837 335.944,787.56C335.979,791.09 337.171,797.594 334.42,798.139C288.863,807.157 166.842,777.373 187.449,668.493C188.5,662.941 194.039,652.517 194.474,649.476C196.766,647.016 196.536,646.937 199.314,645.076Z"/>
            </clipPath>
            <g clip-path="url(#_clip1)">
                <path d="M338.578,798.436L339.452,783.232C306.663,791.662 273.618,790.648 240.363,781.834C270.518,800.285 303.297,805.617 338.578,798.436Z" style="fill-opacity:0.22;"/>
            </g>
            <path d="M199.314,645.076C196.536,646.937 196.766,647.016 194.474,649.476C193.521,649.677 183.185,648.935 175.934,667.651C173.408,674.17 175.56,677.87 168.477,676.954C159.737,675.823 156.278,675.165 149.345,670.764C140.715,662.246 152.772,649.153 166.913,629.806C186.807,602.589 206.345,597.086 210.604,595.886C212.975,595.219 222.479,592.323 218.603,597.574C200.988,621.442 203.755,632.114 199.314,645.076Z" style="fill:rgb(221,72,29);"/>
            <path d="M213.979,650.053C218.102,650.861 238.189,645.361 246.39,648.793C262.249,655.43 256.173,670.751 254.609,706.481C254.365,712.062 262.959,695.973 269.783,687.732C296.35,655.65 309.395,691.944 324.027,700.252C324.075,705.112 321.503,705.337 311.63,708.65C309.754,705.905 290.597,684.767 286.536,688.546C282.105,692.67 270.987,706.652 269.196,712.888C256.547,713.536 242.501,703.906 240.487,702.525C242.069,693.297 242.866,693.642 244.081,676.431C245.533,655.864 236.027,659.163 214.776,664.529C214.728,664.367 214.08,662.427 214.08,662.427C212.751,653.351 213.426,653.445 213.979,650.053Z" style="fill:rgb(96,29,17);"/>
            <path d="M214.776,664.529C236.027,659.163 245.743,654.518 244.081,676.431C242.845,692.737 242.738,695.229 240.487,702.525C239.591,701.834 218.038,687.533 214.776,664.529Z" style="fill:rgb(217,68,26);"/>
            <path d="M352.011,654.987C351.425,659.821 344.591,673.991 347.856,688.416C346.225,693.13 335.995,697.177 335.897,696.415C335.885,696.322 337.912,685.57 332.072,668.69C328.18,657.439 316.847,645.011 329.554,647.204C341.133,649.202 351.682,654.844 352.011,654.987Z" style="fill:rgb(19,137,189);"/>
            <path d="M311.63,708.65C308.711,709.239 286.361,715.388 269.196,712.888C270.987,706.652 282.105,692.67 286.536,688.546C290.597,684.767 309.754,705.905 311.63,708.65Z" style="fill:rgb(229,78,30);"/>
        </g>
        <g id="Beine">
            <path d="M371.272,704.296C380.524,711.829 428.22,717.797 451.503,718.446C454.342,718.526 455.651,717.494 455.705,717.425L456.45,719.52C483.343,779.278 561.601,776.062 603.264,725.313C603.247,725.857 604.524,725.999 603.201,727.304C601.813,728.674 602.665,728.971 601.838,730.644C601.571,731.183 596.38,741.683 602.305,738.146C614.432,730.904 629.019,698.399 630.722,694.604C633.507,688.396 683.075,700.797 695.42,756.35C687.295,760.358 664.819,767.868 636.754,803.933C626.95,791.451 627.308,779.026 594.27,763.97C587.653,760.955 593.638,750.956 587.678,753.806C586.81,754.221 565.742,775.892 514.512,781.617C500.94,783.133 484.78,783.199 464.504,779.473C460.126,778.668 473.197,749.554 456.046,767.009C426.333,797.251 433.846,825.104 433.445,834.409C403.11,847.542 368.906,837.648 363.532,836.094C361.134,833.934 341.993,806.175 352.416,757.488C357.679,732.902 369.11,709.248 371.272,704.296Z" style="fill:rgb(20,140,193);"/>
            <path d="M619.822,688.574C618.951,691.678 612.458,714.824 603.264,725.313C561.601,776.062 483.343,779.278 456.45,719.52C457.006,719.33 513.809,716.324 535.468,712.228C586.946,702.491 607.571,693.096 613.467,690.409C616.738,688.92 616.494,687.198 619.822,688.574Z" style="fill:rgb(249,189,20);"/>
            <path d="M636.754,803.933C629.257,815.238 630.867,816.645 627.705,818.939C626.369,811.956 614.584,790.04 600.211,781.985C578.788,769.98 573.64,778.232 570.261,780.01C565.797,782.359 541.195,795.301 509.521,796.909C458.337,799.508 457.841,789.628 454.719,792.724C448.639,798.753 446.349,830.327 446.349,830.327L433.445,834.409C433.846,825.104 426.333,797.251 456.046,767.009C473.197,749.554 460.126,778.668 464.504,779.473C484.78,783.199 500.94,783.133 514.512,781.617C565.742,775.892 586.81,754.221 587.678,753.806C593.638,750.956 587.653,760.955 594.27,763.97C627.308,779.026 626.95,791.451 636.754,803.933Z" style="fill:rgb(4,43,68);"/>
            <path d="M621.23,677.233C620.905,682.289 620.586,683.607 619.822,688.574C617.124,689.26 616.451,689.55 613.181,691.039C607.284,693.725 586.946,702.491 535.468,712.228C513.809,716.324 457.006,719.33 456.45,719.52L455.705,717.425C453.184,708.5 453.11,708.559 452.591,705.97C558.183,702.031 619.593,676.986 621.23,677.233Z" style="fill:rgb(222,156,7);"/>
            <path d="M371.702,697.226C375.558,697.859 392.427,700.507 405.803,701.734C429.336,703.892 428.884,704.519 452.591,705.97C453.11,708.559 454.013,710.709 456.535,719.634C454.809,719.44 453.961,719.493 450.682,719.297C427.432,717.904 380.524,711.829 371.272,704.296C371.92,701.102 371.831,700.486 371.702,697.226Z" style="fill:rgb(10,107,151);"/>
            <path d="M635.919,672.109C636.331,675.744 634.915,679.341 638.534,680.369C670.875,689.561 693.16,701.778 707.766,754.274C706.774,754.408 700.455,755.263 695.42,756.35C683.075,700.797 633.507,688.396 630.722,694.604C629.019,698.399 614.774,731.509 602.305,738.146C592.926,743.138 602.695,726.089 603.264,725.313C612.458,714.824 618.951,691.678 619.822,688.574C620.586,683.607 620.791,682.403 621.115,677.347C621.824,676.974 635.754,671.927 635.919,672.109Z" style="fill:rgb(5,45,72);"/>
        </g>
        <g id="Schuh-rechts" serif:id="Schuh rechts">
            <path d="M447.404,819.7C456.58,822.702 459.736,824.705 462.638,832.45C462.861,833.044 465.191,841.135 461.509,850.504C459.161,856.479 458.765,856.712 461.287,862.593C462.821,866.168 475.31,895.29 470.181,910.398C462.69,932.462 376.794,944.639 328.491,942.678C255.22,939.702 263.221,920.552 262.741,914.534C270.489,842.833 329.369,851.112 337.51,851.606C344.323,852.02 328.579,843.309 342.075,824.334C344.729,832.135 352.465,832.679 363.532,836.094C368.906,837.648 403.11,847.542 433.445,834.409C433.445,834.409 442.743,831.217 446.077,830.055C446.682,826.555 446.797,825.182 447.404,819.7Z" style="fill:rgb(116,73,8);"/>
            <path d="M457.897,899.484C457.779,908.011 455.416,907.332 447.426,910.327C363.001,941.977 278.735,923.976 277.035,918.629C275.784,914.695 277.25,848.536 351.515,868.442C372.312,874.017 405.387,889.654 389.148,873.891C378.989,864.028 356.941,859.009 352.993,852.24C348.253,844.113 349.552,841.719 351.439,842.649C356.837,845.307 385.908,859.624 426.372,849.047C442.969,844.709 450.543,834.409 451.267,837.568C455.174,854.591 423.105,868.809 445.442,866.192C448.874,865.79 449.882,867.342 453.756,879.422C456.909,889.255 456.563,889.262 457.897,899.484Z" style="fill:rgb(250,191,22);"/>
        </g>
        <g id="Schuh-links" serif:id="Schuh links">
            <path d="M707.766,754.274C715.062,755.467 717.463,757.469 718.22,757.93C725.764,762.519 725.936,758.087 728.862,755.974C734.079,752.207 774.827,722.786 809.294,754.741C861.714,803.342 779.109,871.754 725.31,895.077C640.892,931.674 642.381,871.066 636.664,852.432C635.063,847.215 619.24,850.945 627.646,818.645C628.433,815.621 630.107,812.306 636.754,803.933C663.846,766.774 686.732,759.725 695.42,756.35C700.455,755.263 706.594,754.082 707.766,754.274Z" style="fill:rgb(114,71,8);"/>
            <path d="M777.469,753.941C786.153,755.892 796.439,756.567 806.859,771.327C810.553,776.558 792.893,766.72 762.805,786.915C734.492,805.918 698.451,848.842 664.779,878.822C663.2,880.229 659.701,885.288 658.393,882.565C647.781,860.488 647.453,842.136 647.389,838.503C647.313,834.247 643.585,840.362 640.654,837.353C623.611,819.854 698.448,753.616 710.167,769.731C711.53,771.606 683.881,796.011 684.978,814.431C685.419,821.827 706.328,788.524 735.121,767.016C755.829,751.548 769.469,753.758 777.469,753.941Z" style="fill:rgb(250,191,21);"/>
            <path d="M791.492,833.493C784.633,840.41 737.842,887.594 685.493,893.434C684.264,893.571 667.918,895.395 670.326,890.424C671.975,887.021 745.479,810.071 767.822,795.988C770.879,794.062 800.895,775.142 812.077,786.95C812.525,787.423 818.363,798.164 800.071,823.158C797.696,826.402 792.2,832.684 791.492,833.493Z" style="fill:rgb(228,140,5);"/>
        </g>
        <g id="Arm-rechts" serif:id="Arm rechts">
            <path d="M243.538,474.431C271.584,490.107 285.013,493.596 304.571,496.426C305.769,499.082 310.731,510.09 309.593,532.503C308.641,551.258 301.065,566.113 299.698,568.793C281.114,566.581 251.654,553.865 240.714,548.09C221.131,537.752 221.586,537.25 203.189,524.873C207.382,522.915 206.901,522.481 210.161,519.122C229.3,499.401 229.658,500.436 230.922,498.412C233.295,494.616 238.099,486.614 238.599,485.535C240.856,480.666 241.379,476.706 241.444,476.538C241.803,475.615 243.18,475.354 243.538,474.431Z" style="fill:rgb(21,140,192);"/>
            <path d="M196.314,520.188C202.799,524.471 202.626,524.519 203.189,524.873C221.586,537.25 221.131,537.752 240.714,548.09C251.654,553.865 281.114,566.581 299.698,568.793C296.749,576.167 295.567,579.974 291.144,581.369C280.402,584.757 264.9,574.821 262.749,573.703C226.204,554.698 209.465,546.862 180.471,524.04C181.22,522.941 183.935,524.465 196.314,520.188Z" style="fill:rgb(5,44,69);"/>
            <path d="M240.967,458.373C249.945,463.944 285.5,479.804 285.5,479.804C298.826,485.169 302.929,483.628 304.571,496.426C285.013,493.596 271.584,490.107 243.538,474.431L239.522,472.512C241.454,461.42 240.74,458.988 240.967,458.373Z" style="fill:rgb(4,42,67);"/>
            <path d="M239.522,472.512L243.538,474.431C243.18,475.354 241.543,480.952 239.286,485.822C238.787,486.9 234.328,495.04 231.853,498.77C228.261,504.185 224.716,508.101 210.733,519.838C207.148,522.847 207.382,522.915 203.189,524.873C202.626,524.519 202.799,524.471 196.314,520.188C220.07,508.791 231.822,493.932 239.522,472.512Z" style="fill:rgb(12,118,167);"/>
        </g>
        <g id="Arm-links" serif:id="Arm links">
            <path d="M715.523,433.477C725.547,451.335 722.617,453.998 750.213,475.77C749.877,478.218 716.48,512.925 681.886,531.005C679.522,525.834 683.274,499.23 659.379,465.536C662.409,461.345 664.453,464.299 715.523,433.477Z" style="fill:rgb(20,140,193);"/>
            <path d="M750.213,475.77C762.065,480.491 763.367,481.462 764.364,482.206C717.18,528.925 684.392,544.116 679.462,546.723C679.363,545.526 680.113,537.197 681.886,531.005C716.48,512.925 749.877,478.218 750.213,475.77Z" style="fill:rgb(5,44,69);"/>
            <path d="M712.723,420.267C713.246,422.665 712.735,422.632 713.248,424.565C714.427,429.019 714.354,428.898 715.523,433.477C664.453,464.299 662.409,461.345 659.379,465.536C656.281,463.428 654.018,459.418 651.036,457.033C650.212,456.374 648.713,455.209 648.713,455.209C686.967,436.41 694.136,431.26 712.723,420.267Z" style="fill:rgb(6,44,68);"/>
        </g>
        <g id="Buch">
            <path d="M841.175,291.547C845.628,282.279 879.573,178.037 880.637,167.533C881.876,151.495 838.384,77.986 835.777,73.37C834.454,71.027 834.165,69.103 829.628,71.802C822.45,76.072 860.234,131.973 868.796,160.405C871.452,169.225 869.059,175.529 868.272,176.267C854.611,189.074 842.001,188.898 839.488,188.863C825.115,188.664 753.485,156.19 715.564,142.328C680.345,129.453 674.41,124.831 673.467,124.883C670.254,125.06 658.897,188.661 645.645,238.344C633.571,235.214 633.808,235.803 632.693,235.098C633.76,231.918 633.985,230.647 634.959,226.607C661.327,117.254 659.032,106.933 674.577,111.19C684.587,113.932 682.296,95.713 714.395,101.931C780.161,114.671 780.555,127.866 782.589,122.542C805.008,63.848 804.509,51.127 821.36,60.846C823.588,62.131 829.274,52.522 837.362,54.979C846.917,57.882 890.829,145 894.142,163.578C895.189,169.449 895.509,171.239 874.178,235.395C866.871,257.376 867.323,257.403 860.131,279.376C857.227,288.248 854.997,293.672 854.302,296.972C850.808,294.799 845.096,292.394 841.175,291.547Z" style="fill:rgb(95,28,16);"/>
            <path d="M880.637,167.533C875.787,172.994 876.933,177.822 871.398,183.383C862.35,192.474 852.797,196.78 852.265,199.405C848.944,215.785 824.672,287.658 823.623,291.758C812.921,296.533 812.599,296.044 804.34,304.329C804.253,304.416 802.306,306.148 802.306,306.148C800.401,306.253 791.402,332.819 789.758,339.043C786.936,329.439 782.403,309.749 764.778,303.509C755.032,300.058 730.625,303.187 735.863,334.662C738.162,348.48 739.673,348.802 737.011,355.173C730.737,357.194 674.698,329.034 674.248,328.838C673.596,326.068 688.099,263.885 645.645,238.344C658.897,188.661 670.254,125.06 673.467,124.883C674.41,124.831 680.345,129.453 715.564,142.328C753.485,156.19 825.115,188.664 839.488,188.863C842.001,188.898 854.611,189.074 868.272,176.267C869.059,175.529 871.452,169.225 868.796,160.405C860.234,131.973 822.45,76.072 829.628,71.802C834.165,69.103 834.454,71.027 835.777,73.37C838.384,77.986 881.876,151.495 880.637,167.533Z" style="fill:rgb(228,72,28);"/>
            <path d="M705.329,124.937C692.148,119.304 692.023,119.623 690.939,119.012C690.441,118.731 693.882,112.525 701.505,113.451C742.328,118.413 763.292,129.872 778.399,136.741C816.951,154.269 848.073,183.805 837.628,167.423C824.996,147.61 799.95,134.704 795.735,132.094C793.624,130.788 795.702,126.033 801.78,109.594C813.383,78.211 812.274,77.349 814.763,75.881C819.025,73.368 846.31,129.006 848.467,133.517C861.926,161.664 864.85,165.544 860.203,169.107C850.467,176.571 846.396,179.501 833.582,176.23C822.875,173.497 822.994,173.092 705.329,124.937Z" style="fill:rgb(252,238,179);"/>
            <path d="M880.637,167.533C879.541,178.354 843.704,288.706 840.969,292.239C831.653,293.791 831.676,293.549 823.086,293.1C824.135,289 848.944,215.785 852.265,199.405C852.797,196.78 862.35,192.474 871.398,183.383C876.933,177.822 875.787,172.994 880.637,167.533Z" style="fill:rgb(182,50,22);"/>
            <path d="M802.807,304.358C802.435,305.294 797.494,340.974 796.474,347.113C791.835,349.214 789.987,346.062 789.282,340.968C789.008,338.987 789.589,336.801 789.758,334.659C791.402,328.434 791.462,315.07 797.665,294.55C823.7,208.429 823.432,190.444 828.56,189.683C836.891,188.446 831.008,203.015 826.309,221.444C806.675,298.451 803.501,297.499 802.807,304.358Z" style="fill:rgb(101,29,17);"/>
            <path d="M674.161,328.789C674.611,328.986 730.737,355.018 737.125,354.944C735.34,362.503 733.852,361.39 730.773,368.392C730.757,368.376 730.58,367.547 729.628,367.215C673.961,347.762 675.787,342.857 670.682,342.696C672.429,335.846 671.26,335.25 674.161,328.789Z" style="fill:rgb(95,28,16);"/>
            <path d="M838.691,153.144C837.03,151.426 808.778,100.571 818.57,105.404C820.247,106.232 819.377,106.838 830.622,125.443C835.043,132.758 836.686,141.961 836.955,143.465C837.651,147.362 840.6,149.89 838.691,153.144Z" style="fill:rgb(227,184,102);"/>
        </g>
        <g id="Faust-links" serif:id="Faust links">
            <path d="M854.94,296.56C856.442,297.494 856.811,298.223 857.916,299.303C879.072,319.958 866.554,345.009 867.848,347.312C870.004,351.148 883.829,375.747 864.065,402.184C856.556,412.229 861.593,414.483 855.101,425.273C837.2,455.021 807.852,457.494 806.774,458.813C797.466,470.198 799.008,483.271 764.364,482.206C763.172,481.755 761.478,481.372 750.213,475.77C722.617,453.998 725.547,451.335 715.523,433.477C714.354,428.898 714.427,429.019 713.248,424.565C712.735,422.632 710.714,415.538 714.145,406.35C717.68,396.887 719.556,398.293 728.46,393.428C730.646,392.233 727.297,391.109 730.773,368.392C732.543,364.366 736.452,358.372 737.265,351.314C737.866,346.096 735.84,340.245 734.861,334.448C729.275,301.381 753.764,297.127 765.351,301.934C782.621,309.099 786.936,325.055 789.758,334.659C789.589,336.801 789.903,336.638 790.177,338.619C790.881,343.713 788.831,347.575 793.47,345.475C799.031,340.389 797.729,339.189 794.118,330.574L794.075,329.475C796.649,317.515 794.85,316.75 801.859,306.74C802.826,305.36 804.253,304.416 804.34,304.329C812.599,296.044 812.921,296.533 823.623,291.758C832.559,290.479 832.47,290.956 841.416,291.255C841.496,291.152 851.447,294.387 854.94,296.56Z" style="fill:rgb(115,72,8);"/>
            <path d="M749.056,337.576C746.965,325.94 746.695,325.982 746.866,323.528C748.379,301.78 781.946,316.395 779.977,358.521C779.117,376.92 790.314,375.502 788.563,378.529C783.645,387.032 783.157,386.815 781.152,396.44C780.522,399.464 770.518,400.786 766.938,407.706C761.24,418.719 777.5,405.832 780.497,404.491C782.368,403.653 781.961,404.91 784.347,408.598C794.642,424.511 816.461,425.942 826.098,414.143C834.791,403.5 818.358,412.559 810.465,410.671C774.256,402.01 802.989,365.796 832.294,379.976C872.652,399.504 826.721,457.248 786.568,444.231C772.61,439.706 762.921,427.177 768.289,438.588C775.017,452.889 786.794,455.258 790.308,456.854C795.767,459.335 773.468,482.134 748.778,459.192C710.958,424.047 727.91,396.054 735.949,408.178C740.726,415.381 756.053,425.751 752.266,416.592C740.225,387.473 736.94,385.814 750.182,355.381C751.763,351.747 750.417,348.258 749.056,337.576Z" style="fill:rgb(250,192,22);"/>
            <path d="M845.632,374.331C814.866,354.414 801.226,372.06 797.561,371.292C790.969,369.911 795.967,340.921 824.506,341.097C874.87,341.406 860.741,393.452 855.806,386.274C851.93,380.636 852.326,380.366 845.632,374.331Z" style="fill:rgb(250,193,22);"/>
            <path d="M833.521,330.221C822.713,329.63 820.018,329.253 809.331,333.059C801.214,335.95 807.188,308.091 826.554,304.809C860.83,299.002 858.151,337.866 854.496,336.516C844.131,332.684 844.402,332.112 833.521,330.221Z" style="fill:rgb(250,193,22);"/>
        </g>
        <g id="Faust-rechts" serif:id="Faust rechts">
            <path d="M231.249,436.751C241.034,446.726 241.23,459.756 241.219,460.412C241.181,462.507 241.078,464.664 239.522,472.798C231.822,494.218 220.07,508.791 196.314,520.188C183.935,524.465 169.194,527.789 156.795,519.059C144.511,510.411 145.985,508.977 139.437,495.537C137.955,492.496 115.123,492.747 89.08,458.837C44.873,401.277 122.561,305.011 170.472,323.571C196.914,333.814 194.484,356.319 198.501,356.474C203.722,356.676 244.669,358.258 235.245,410.457C231.94,428.764 224.448,429.817 231.249,436.751Z" style="fill:rgb(115,72,8);"/>
            <path d="M160.54,335.095C163.293,335.699 185.874,340.653 183.813,361.543C183.627,363.423 173.286,371.186 171.638,369.388C170.129,367.74 165.298,358.574 149.483,356.651C142.801,355.838 125.273,361.704 139.552,365.214C141.817,365.771 163.336,371.062 164.369,380.52C164.739,383.911 152.529,395.075 162.918,415.224C165.064,419.385 162.02,418.451 161.901,418.227C159.235,413.192 156.817,401.831 141.602,391.348C126.965,381.263 109.303,389.8 119.472,393.56C123.135,394.914 150.7,405.107 151.382,430.502C151.795,445.88 132.242,449.987 119.699,435.338C105.831,419.142 111.993,442.287 116.774,447.269C135.791,467.085 158.215,455.719 162.236,438.452C164.037,430.717 167.455,433.65 173.282,428.264C181.675,420.506 191.113,429.244 203.218,417.217C211.689,408.801 212.945,389.309 208.074,397.235C195.676,417.413 165.647,419.085 169.97,394.577C174.093,371.198 217.927,355.069 223.416,391.509C227.998,421.926 201.562,449.046 197.851,452.853C192.539,458.301 205.487,458.748 216.386,447.394C217.508,446.225 219.037,441.581 223.109,446.797C249.219,480.237 170.296,539.54 153.998,497.283C151.662,491.225 167.153,497.109 181.287,481.312C203.403,456.595 177.737,424.581 180.212,436.542C181.057,440.626 191.882,475.854 160.451,482.24C129.235,488.582 76.512,451.439 90.922,401.603C103.639,357.62 137.158,335.068 155.506,334.733C157.188,334.702 158.858,335.126 160.54,335.095Z" style="fill:rgb(250,192,22);"/>
        </g>
        <g id="Shirt">
            <path d="M632.452,450.303C640.974,447.899 650.355,456.159 651.179,456.818C654.161,459.203 656.743,461.819 659.379,465.536C683.274,499.23 681.955,525.794 681.886,531.005C681.774,539.487 679.884,547.914 679.11,550.373C671.725,573.836 647.296,573.931 626.464,579.427C623.248,580.275 639.516,607.322 649.291,652.541C653.298,671.076 636.139,671.911 633.335,673.196C627.864,675.702 628.032,675.29 622.806,676.958C622.043,677.202 558.183,705.926 452.591,705.97C428.884,704.519 429.05,704.408 405.517,702.249C392.14,701.022 361.094,696.227 355.051,694.857C352.447,694.266 348.299,688.922 347.856,688.416C343.08,673.902 352.612,652.717 352.612,652.717C354.087,645.97 355.663,639.376 357.585,630.52C357.947,628.85 358.958,624.194 361.086,609.446C362.045,602.796 355.852,606.845 343.493,607.318C266.196,610.271 267.873,588.63 264.323,574.587C269.947,576.465 288.524,590.706 299.698,568.793C301.065,566.113 308.641,551.258 309.593,532.503C310.731,510.09 305.769,499.082 304.571,496.426C301.41,483.62 297.482,485.366 285.5,479.804L283.899,479.16C287.309,473.638 289.333,471.451 289.892,470.978C300.019,462.424 344.864,479.286 374.506,484.408C376.921,484.825 374.586,476.826 374.393,476.323C374.763,476.359 374.761,476.555 376.082,477.867C386.403,488.119 401.888,500.143 404.229,501.961C409.611,506.141 442.061,530.145 485.162,526.013C547.891,520 547.85,479.49 551.267,471.5C551.495,470.967 553.283,471.053 556.484,470.429C607.096,460.562 611.486,456.216 632.452,450.303Z" style="fill:rgb(19,29,29);"/>
            <path d="M311.512,483.965C311.512,483.965 332.985,488.316 354.415,493.888C377.809,499.97 387.727,496.982 391.108,502.612C395.572,510.044 399.143,518.407 399.996,519.745C404.189,526.319 405.242,527.754 409.455,532.381C408.141,527.7 407.643,526.644 407.063,521.151C406.732,518.018 405.174,515.309 405.607,510.564C406.185,510.95 413.373,517.29 417.605,520.395C428.551,528.426 429.259,527.21 430.13,527.995C441.966,538.678 487.51,550.672 522.454,534.421C542.306,525.188 546.234,511.375 547.225,508.304C548.708,503.712 550.663,495.334 550.398,489.735C550.226,486.104 549.624,483.585 550.491,483.474C565.121,481.599 564.973,481.494 579.572,478.726C599.558,474.937 631.259,464.364 632.604,463.808C640.111,460.704 640.01,465.059 641.381,465.654C648.605,468.788 654.62,483.119 654.772,483.397C670.226,511.614 667.539,535.296 667.692,538.514C668.771,561.136 644.812,561.405 620.648,567.269C616.74,563.589 617.449,562.035 615.909,559.384C614.198,556.438 612.227,552.857 610.382,549.596C608.503,546.276 606.925,542.596 604.635,539.459C599.482,532.401 579.738,507.251 579.466,507.247C576.643,507.204 577.065,509.641 593.092,539.794C617.2,585.151 630.208,628.726 631.279,633.618C636.062,655.472 638.47,657.084 634.499,658.681C614.994,666.529 608.882,666.84 606.541,667.718C590.749,673.642 590.747,673.581 589.383,674.116C553.66,688.132 488.191,693.15 449.481,691.874C391.472,689.96 369.23,683.348 361.485,682.646C358.048,682.334 363.86,662.123 364.356,660.399C364.723,658.144 365.214,658.298 370.763,632.57C370.99,631.52 372.673,611.03 375.827,597.568C376.895,593.005 382.515,586.027 382.399,585.23C367.485,593.652 348.027,593.901 329.494,594.715C311.659,595.499 299.669,593.973 299.669,593.973C299.669,593.973 304.826,587.654 307.709,583.595C310.168,580.132 321.782,560.621 322.45,533.496C322.532,530.157 323.043,509.383 314.431,492.518C313.958,491.592 311.512,483.965 311.512,483.965Z" style="fill:rgb(36,45,44);"/>
        </g>
        <g transform="matrix(0.838782,-0.091262,0.100799,0.926443,24.915313,91.609016)">
            <path d="M559.956,563.84C565.497,596.46 560.77,627.895 558.65,653.903C558.008,661.779 553.313,664.686 546.74,664.686C516.762,667.534 489.109,669.422 449.1,664.454C442.527,664.454 438.353,660.105 438.353,654.153C441.439,640.931 445.224,610.71 442.031,563.956C442.031,558.004 447.368,553.172 453.942,553.172C497.728,558.398 521.84,556.355 548.046,553.056C554.62,553.056 559.956,557.888 559.956,563.84Z" style="fill:rgb(254,215,55);"/>
        </g>
        <g id="Logo" transform="matrix(0.937674,-0.10449,0.10449,0.937674,65.876988,88.021439)">
            <path d="M380.902,642.833L397.997,642.954L397.088,612.026L409.549,612.026L408.415,642.9L423.395,642.9L422.96,640.413L416.841,637.101L429.01,587.334L442.322,580.204L442.625,577.384L414.857,581.335L411.781,604.789L396.559,604.665L394.781,581.565L369.859,576.335L370.01,580.425L382.43,586.924L387.688,637.19L380.887,640.702L380.902,642.833Z"/>
            <g transform="matrix(1,0,0,1,-2.806048,-2.215495)">
                <ellipse cx="401.639" cy="570.886" rx="10.781" ry="8.714"/>
            </g>
            <g transform="matrix(1,0,0,1,7.975085,-2.215495)">
                <ellipse cx="401.639" cy="570.886" rx="10.781" ry="8.714" style="fill:rgb(233,233,233);"/>
            </g>
        </g>
        <g id="Haare-Schuppen" serif:id="Haare Schuppen">
            <path d="M331.081,81.118C327.461,85.74 333.623,88.828 349.357,127.555C356.082,144.109 355.725,144.829 357.601,147.295C350.197,155.491 350.451,154.955 344.884,164.572C335.149,158.379 286.654,138.881 246.427,150.3C240.178,152.839 237.286,153.961 241.887,160.177C251.303,172.902 270.104,191.505 286.832,216.29C286.832,216.29 288.491,217.543 288.635,217.652C284.987,223.106 278.949,239.567 278.231,241.523C267.809,239.338 207.424,248.254 216.563,261.455C216.756,261.734 216.774,261.688 219.409,264.606C233.795,277.363 272.839,298.25 275.537,299.508C278.935,317.362 281.258,317.384 278.826,325.487C276.862,325.885 276.84,325.81 276.704,325.917C257.764,340.897 257.024,340.233 251.004,349.22C247.099,355.05 259.985,362.361 274.533,362.666C275.727,368.116 278.256,377.364 278.311,378.196C276.025,377.849 270.844,376.37 268.557,376.023C244.355,372.342 223.933,357.142 245.788,334.777C263.004,317.158 273.246,315.673 269.379,312.66C250.5,297.948 186.106,274.246 204.813,248.74C218.055,230.686 270.523,228.59 276.479,228.352C283.569,228.069 236.951,176.5 230.617,168.415C209.551,141.527 252.559,131.267 284.484,133.901C313.849,136.325 313.387,138.493 341.515,147.369C347.455,149.242 319.582,96.968 317.38,88.527C305.118,41.534 413.434,72.842 459.805,145.089C458.675,145.248 446.043,146.56 443.45,146.459C436.615,124.399 351.483,66.882 331.081,81.118Z" style="fill:rgb(95,28,16);"/>
            <path d="M331.081,81.118C344.326,83.434 375.819,97.81 392.442,107.423C424.121,125.744 439.625,145.518 439.495,146.445C428.356,148.52 428.724,149.816 417.496,151.475C408.799,152.761 388.324,124.684 357.463,147.387C355.587,144.92 356.082,144.109 349.357,127.555C333.623,88.828 327.461,85.74 331.081,81.118Z" style="fill:rgb(224,71,28);"/>
            <path d="M246.427,150.3C249.492,154.255 251.134,151.068 252.667,152.472C252.84,152.63 278.062,154.656 290.49,155.032C303.662,155.431 316.483,160.486 318.286,160.811C332.509,163.374 343.743,167.585 343.743,167.585C339.472,177.805 326.047,167.412 295.864,206.777C291.809,212.065 289.151,216.744 288.635,217.652C288.491,217.543 286.832,216.29 286.832,216.29C270.104,191.505 251.303,172.902 241.887,160.177C237.286,153.961 240.178,152.839 246.427,150.3Z" style="fill:rgb(225,71,28);"/>
            <path d="M275.778,251.576C275.269,255.376 271.799,281.25 275.537,299.508C272.839,298.25 233.795,277.363 219.409,264.606C223.95,261.631 224.177,262.358 229.446,261.31C234.234,260.357 233.908,259.732 238.474,258.429C250.537,254.987 250.578,255.212 251.61,254.865C253.323,254.29 270.507,248.517 273.49,249.258C276.256,249.944 275.349,251.14 275.778,251.576Z" style="fill:rgb(223,70,28);"/>
            <path d="M331.081,81.118C351.962,66.164 437.029,123.766 443.427,146.482C442.307,146.661 440.83,148.557 439.71,148.736C439.84,147.809 419.871,128.205 388.191,109.884C371.568,100.271 371.424,100.766 354.446,91.58C339.009,83.229 337.28,86.677 331.081,81.118Z" style="fill:rgb(240,97,39);"/>
            <path d="M246.427,150.3C286.654,138.881 335.149,158.379 344.884,164.572C346.532,165.154 342.906,173.518 341.31,172.954C341.31,172.954 331.704,166.148 317.481,163.585C315.678,163.26 304.647,159.637 291.474,159.238C279.046,158.862 279.271,157.312 257.511,156.715C249.654,156.5 244.411,157.569 244.238,157.411C243.289,156.542 239.445,154.68 240.562,153.103C241.248,152.133 242.842,151.317 246.427,150.3Z" style="fill:rgb(240,96,38);"/>
            <path d="M278.231,241.523C276.569,247.181 275.925,250.761 275.778,251.576C275.349,251.14 276.256,249.944 273.49,249.258C270.507,248.517 253.323,254.29 251.61,254.865C250.578,255.212 250.537,254.987 238.474,258.429C233.908,259.732 234.234,260.357 229.446,261.31C224.177,262.358 223.95,261.631 219.409,264.606C216.774,261.688 216.756,261.734 216.563,261.455C207.424,248.254 267.809,239.338 278.231,241.523Z" style="fill:rgb(239,96,38);"/>
            <path d="M280.115,324.199C277.587,329.622 278.209,331.185 276.333,336.876C274.472,349.856 274.011,350.067 274.247,363.095C259.699,362.79 247.099,355.05 251.004,349.22C257.024,340.233 257.764,340.897 276.704,325.917C276.84,325.81 278.15,324.597 280.115,324.199Z" style="fill:rgb(197,57,23);"/>
        </g>
        <g id="Gesicht">
            <path id="Gesicht-Rahmen" serif:id="Gesicht Rahmen" d="M439.495,146.445C440.615,146.266 453.031,144.709 459.805,145.089C467.536,145.523 463.939,137.588 475.573,124.566C509.768,86.294 555.941,129.545 545.351,205.475C543.975,215.346 548.039,214.182 553.064,222.744C566.232,245.176 561.426,261.117 567.536,259.656C593.636,253.416 594.724,256.901 596.1,255.04C604.836,243.224 616.399,234.971 632.464,234.469C635.246,234.381 641.4,235.363 647.099,238.791C689.553,264.332 676.795,327.094 670.682,342.696C638.212,425.568 588.799,418.272 558.451,413.741C556.805,413.495 554.293,413.133 554.293,413.133C554.293,413.133 554.873,417.104 554.892,418.495C555.402,454.976 552.506,468.797 551.768,471.858C549.531,481.126 548.226,521.454 485.497,527.467C442.396,531.599 409.611,506.141 404.229,501.961C401.888,500.143 386.045,488.745 375.724,478.494C374.403,477.182 344.24,453.429 341.661,451.291C283.047,402.71 284.373,392.577 276.376,374.513C275.529,372.598 272.965,361.156 273.304,354.374C273.713,346.203 276.298,330.91 278.826,325.487C281.258,317.384 278.935,317.362 275.537,299.508C271.799,281.25 275.269,255.376 275.778,251.576C275.925,250.761 276.569,247.181 278.231,241.523C278.949,239.567 284.987,223.106 288.635,217.652C289.151,216.744 291.809,212.065 295.864,206.777C326.047,167.412 339.472,177.805 343.743,167.585L344.884,164.572C350.451,154.955 350.197,154.895 357.601,146.7C388.461,123.997 408.799,152.761 417.496,151.475C428.724,149.816 428.356,148.52 439.495,146.445Z" style="fill:rgb(4,42,67);"/>
            <path id="Gesicht1" serif:id="Gesicht" d="M475.685,152.541C480.11,140.69 478.867,139.558 488.848,131.963C522.014,106.724 538.236,158.737 534.112,199.458C533.712,203.413 532.613,203.404 529.503,202.49C500.464,193.956 488.357,224.385 493.992,255.405C497.119,272.62 497.733,251.631 501.859,234.6C502.243,233.65 505.526,221.954 512.57,216.6C515.151,214.639 519.74,214.308 520.507,214.42C545.657,218.101 553.227,260.903 551.426,263.44C546.739,270.045 546.038,253.814 532.544,248.387C505.38,237.462 506.543,278.132 506.639,281.493C506.713,284.061 501.913,285.492 491.811,295.805C481.195,306.644 510.457,294.298 513.328,293.102C533.722,284.512 533.382,283.999 554.428,277.206C564.069,274.094 583.489,267.802 593.405,269.409C597.042,269.999 601.58,285.476 601.707,285.394C610.388,301.747 600.45,267.021 612.896,256.951C629.339,243.647 645.385,256.708 647.536,258.459C686.21,304.964 646.706,365.283 642.086,371.188C613.949,407.145 594.516,404.563 554.511,399.391C469.396,388.387 411.29,381.769 371.923,349.052C368.613,346.302 391.758,346.626 383.295,342.967C342.41,325.293 329.641,355.954 329.802,361.476C330.09,371.358 338.419,359.467 346.768,354.944C352.861,351.643 349.093,358.964 375.26,406.656C375.478,411.689 390.133,448.632 406.962,468.087C411.503,473.336 441.205,507.672 481.503,512.472C483.12,512.664 499.026,511.724 500.097,511.721C493.695,514.926 490.099,515.278 484.764,515.666C438.689,519.017 413.26,493.354 398.093,479.922C365.819,451.341 364.805,452.785 331.107,425.919C254.085,364.512 299.8,318.262 294.285,312.759C292.801,311.278 288.014,306.5 287.213,287.518C285.629,249.969 293.101,236.881 306.182,216.29C311.428,211.416 311.613,211.877 315.811,207.231C324.76,197.326 328.323,194.9 329.669,194.076C336.259,190.038 336.441,198.387 336.611,198.493C336.75,199.67 341.441,239.43 349.624,205.562C350.598,204.009 350.573,204.096 351.244,202.389C371.637,150.45 410.275,169.894 419.25,170.843C425.309,174.353 425.197,174.378 426.721,175.057C438.74,180.416 428.111,167.118 426.894,165.267C425.831,163.651 426.474,160.846 450.486,160.01C461.824,159.615 464.781,156.726 468.955,167.29C472.905,177.286 475.239,155.454 475.685,152.541Z" style="fill:rgb(20,135,186);"/>
            <path d="M396.645,318.991C390.546,315.087 362.846,305.901 366.491,256.942C371.448,190.372 448.782,185.064 456.421,288.458C458.621,318.231 428.612,335.609 415.131,329.18C400.095,322.01 404.55,324.05 396.645,318.991Z" style="fill:rgb(253,250,228);"/>
            <path d="M448.984,417.065C455.066,425.158 454.955,425.102 460.438,433.562C460.523,433.691 461.249,434.812 462.27,434.183C464.571,432.765 463.028,432.028 458.313,417.554C457.517,415.11 464.159,415.826 468.494,415.918C486.288,416.297 503.548,436.991 507.848,462.451C509.429,471.81 507.413,471.95 501.612,474.757C453.099,487.06 406.125,426.8 400.456,419.528C417.382,407.291 436.994,413.104 448.984,417.065Z" style="fill:rgb(228,78,32);"/>
            <path d="M375.26,406.656C376.523,407.944 377.582,410.025 377.743,410.342C388.228,430.958 427.641,481.092 472.546,489.117C542.209,501.567 529.427,437.782 529.151,411.484C529.121,408.645 533.26,409.918 536.515,410.412C541.066,411.104 541.152,412.807 541.772,425.48C544.145,473.949 536.497,506.414 494.505,512.595C493.434,512.597 483.12,512.664 481.503,512.472C441.205,507.672 411.503,473.336 406.962,468.087C390.133,448.632 375.478,411.689 375.26,406.656Z" style="fill:rgb(245,185,26);"/>
            <path d="M410.351,325.981C407.276,324.567 398.677,320.281 395.042,314.741C388.754,305.158 389.095,273.765 400.836,264.959C427.872,244.683 452.226,316.06 417.275,329.18C414.325,329.086 412.671,327.049 410.351,325.981Z" style="fill:rgb(23,35,34);"/>
            <path d="M448.984,417.065C440.129,415.098 418.18,408.306 400.456,419.528C399.411,418.147 391.799,408.089 388.429,401.522C386.656,398.067 426.67,383.979 448.984,417.065Z" style="fill:rgb(202,58,24);"/>
            <path d="M419.25,170.843C410.275,169.894 371.637,150.45 351.244,202.389C350.573,204.096 350.598,204.009 349.624,205.562C349.237,203.372 349.562,161.001 376.472,154.341C391.447,150.635 416.883,168.461 419.25,170.843Z" style="fill:rgb(247,191,27);"/>
            <path d="M533.47,306.474C534.974,305.208 545.671,296.212 557.522,301.449C582.151,312.333 577.308,335.739 573.726,329.383C565.577,314.924 550.562,308.698 538.725,314.845C531.668,318.51 527.783,338.677 526.592,325.495C525.645,315.015 527.681,315.336 533.47,306.474Z" style="fill:rgb(4,45,70);"/>
            <path d="M636.544,299.537C635.826,300.862 635.519,303.32 635.172,307.466C633.97,321.824 614.664,297.988 624.938,281.741C636.78,263.016 654.076,297.287 644.356,306.313C640.761,309.652 640.783,300.646 639.481,299.517C638.742,298.875 637.011,298.676 636.544,299.537Z" style="fill:rgb(3,42,65);"/>
            <path d="M542.291,325.42C552.822,305.641 569.229,344.47 556.554,345.818C538.787,347.707 541.982,327.387 542.291,325.42Z" style="fill:rgb(4,42,66);"/>
            <path d="M336.611,198.493C336.441,198.387 335.182,194.893 328.39,198.578C327.411,199.11 322.94,203.408 319.429,207.401C315.553,211.808 312.653,218.064 301.038,224.432C310.979,206.525 324.891,193.217 333.754,189.966C337.58,188.563 336.714,191.517 336.611,198.493Z" style="fill:rgb(30,164,216);"/>
            <path d="M417.081,279.452C412.199,293.913 398.22,275.319 408.564,271.665C415.982,269.045 417.84,277.203 417.081,279.452Z" style="fill:rgb(252,249,233);"/>
            <path d="M415.508,329.028C415.075,330.128 415.03,330.17 413.947,330.642C412.506,331.27 412.439,330.973 410.976,330.408C406.257,328.585 390.902,324.937 376.207,313.496C371.159,309.565 369.054,306.765 368.541,306.084C366.813,303.786 361.59,296.496 359.047,280.748C356.212,263.195 359.239,250.796 359.347,250.247C362.827,232.571 369.518,208.606 391.879,201.735C402.397,198.502 410.939,200.154 412.567,200.469C419.465,201.804 430.623,205.822 442.454,220.293C449.697,229.153 456.339,247.778 459.589,268.052C461.087,277.396 461.114,284.855 461.119,286.322C461.133,290.207 460.885,292.79 460.855,293.14C460.754,294.319 460.759,294.383 459.883,295.177C459.87,295.188 457.773,295.94 457.765,295.936C457.088,295.617 456.24,295.526 455.738,294.971C454.783,293.916 454.987,293.783 454.985,292.36C454.982,289.909 454.97,279.869 450.161,262.115C447.313,251.602 441.163,233.744 434.738,226.123C426.19,215.983 413.531,205.552 395.112,210.903C377.852,215.916 372.082,235.25 368.572,253.674C366.117,266.562 368.056,285.444 374.239,297.322C376.217,301.12 378.043,303.21 382.535,307.164C393.028,316.399 406.066,321.893 412.295,324.608C412.72,324.794 413.846,325.212 413.857,325.223C415.342,326.656 415.392,326.617 415.463,326.781C415.952,327.901 415.574,328.861 415.508,329.028Z" style="fill:rgb(4,41,65);"/>
            <path d="M395.309,328.445C394.09,329.552 393.868,329.05 392.392,328.313C392.347,328.29 390.369,326.647 387.226,324.704C385.121,323.403 384.933,323.169 378.246,319.692C374.584,317.787 373.897,317.189 370.078,315.412C361.593,311.463 355.121,310.32 352.288,309.564C346.126,307.919 342.887,307.366 342.06,307.225C339.925,306.86 338.214,306.452 333.497,306.099C332.686,306.038 332.612,306.177 331.993,305.652C331.981,305.642 331.261,304.205 331.264,304.196C331.424,303.705 331.418,303.119 331.752,302.725C331.864,302.594 332.217,302.177 333.723,301.847C340.948,300.261 346.151,300.322 348.177,300.331C352.497,300.349 355.615,301.003 356.251,301.136C368.44,303.69 379.219,309.439 382.547,311.858C389.607,316.989 393.86,323.141 395.446,325.518C395.576,325.713 396.611,327.265 395.309,328.445Z" style="fill:rgb(4,41,65);"/>
            <path d="M533.413,267.569C536.742,273.616 531.993,272.293 525.585,274.715C521.321,276.326 518.515,280.026 519.335,275.495C522.464,258.2 532.431,266.728 533.413,267.569Z" style="fill:rgb(25,123,166);"/>
        </g>
    </g>
</svg>
