<?xml version="1.0" encoding="UTF-8" standalone="no"?><!DOCTYPE svg PUBLIC "-//W3C//DTD SVG 1.1//EN" "http://www.w3.org/Graphics/SVG/1.1/DTD/svg11.dtd"><svg width="100%" height="100%" viewBox="0 0 600 180" version="1.1" xmlns="http://www.w3.org/2000/svg" xmlns:xlink="http://www.w3.org/1999/xlink" xml:space="preserve" xmlns:serif="http://www.serif.com/" style="fill-rule:evenodd;clip-rule:evenodd;stroke-linejoin:round;stroke-miterlimit:2;"><g><path d="M85.17,90l-58.656,-0c-4.359,-0 -7.891,3.532 -7.891,7.891l-0,56.468c-0,7.573 7.247,13.037 14.526,10.957l3.58,-1.023c9.912,-2.831 20.42,-2.831 30.335,0l11.01,3.147c4.64,1.326 9.555,1.326 14.195,0c12.75,-3.642 24.24,-8.033 41.345,-3.147l3.58,1.023c7.279,2.08 14.527,-3.387 14.527,-10.957l-0,-56.465c-0,-4.359 -3.533,-7.891 -7.892,-7.891l-58.659,-0.003Z" style="fill:#f8883f;fill-rule:nonzero;"/><path d="M142.216,93.78l0,59.541c0,1.357 -1.559,2.14 -2.898,1.821l-4.296,-1.022c-22.023,-5.247 -37.993,-1.112 -49.852,1.714l0,-68.215l5.972,-1.493c14.805,-3.699 30.291,-3.699 45.096,-0.001c3.513,0.878 5.978,4.035 5.978,7.655Z" style="fill:#dbdafd;fill-rule:nonzero;"/><path d="M28.124,93.781l-0,59.54c-0,1.357 1.559,2.14 2.898,1.821l4.296,-1.022c22.023,-5.247 37.993,-1.112 49.855,1.714l0,-68.215l-5.972,-1.493c-14.805,-3.699 -30.291,-3.699 -45.095,-0.001c-3.514,0.878 -5.979,4.035 -5.979,7.655l-0.003,0.001Z" style="fill:#cacafd;fill-rule:nonzero;"/><path d="M128.681,141.136l-10.326,-2.951c-1.354,-0.388 -2.288,-1.626 -2.288,-3.033l-0,-14.824c-0,-2.096 2.007,-3.611 4.025,-3.033l10.325,2.951c1.354,0.388 2.288,1.626 2.288,3.037l0,14.823c0,2.096 -2.007,3.611 -4.024,3.037l-0,-0.007Z" style="fill:#cacafd;fill-rule:nonzero;"/><path d="M127.951,54.349c0,13.955 -6.682,26.348 -17.02,34.157c-5.704,4.316 -9.122,10.979 -9.122,18.132l-23.429,-0c-3.538,-7.551 -8.156,-17.21 -14.186,-29.562c-28.077,-57.538 33.009,-63.795 33.009,-63.795c17.769,5.199 30.748,21.62 30.748,41.068Z" style="fill:#fcec78;fill-rule:nonzero;"/><path d="M92.522,106.638l-23.99,-0c-0,-7.276 -3.523,-13.902 -9.123,-18.132c-10.48,-7.913 -17.2,-20.54 -17.017,-34.728c0.366,-28.104 27.633,-48.442 54.811,-40.497c-17.554,5.149 -30.572,21.311 -30.821,40.497c-0.183,14.188 6.537,26.815 17.017,34.728c5.603,4.233 9.123,10.859 9.123,18.132Z" style="fill:#ffcf6b;fill-rule:nonzero;"/><path d="M51.893,58.108c0,-4.076 4.15,-7.38 9.268,-7.38c5.118,0 9.268,3.304 9.268,7.38c-0,4.076 -4.15,7.381 -9.268,7.381c-5.118,-0 -9.268,-3.305 -9.268,-7.381Z" style="fill:#ffa1ac;fill-opacity:0.97;fill-rule:nonzero;"/><path d="M102.118,58.108c-0,-4.076 4.149,-7.38 9.268,-7.38c5.118,0 9.267,3.304 9.267,7.38c0,4.076 -4.149,7.381 -9.267,7.381c-5.119,-0 -9.268,-3.305 -9.268,-7.381Z" style="fill:#ffa1ac;fill-rule:nonzero;"/><path d="M98.242,101.881l-26.143,-0c-3.283,-0 -5.941,2.661 -5.941,5.941c-0,3.279 2.661,5.94 5.941,5.94l13.071,3.801l13.072,-3.801c3.282,0 5.94,-2.661 5.94,-5.94c0,-3.28 -2.661,-5.941 -5.94,-5.941Z" style="fill:#7a8fa5;fill-rule:nonzero;"/><path d="M85.17,137.532c-6.562,-0 -11.885,-5.319 -11.885,-11.885l0,-2.377l23.767,0l-0,2.377c-0,6.563 -5.319,11.885 -11.885,11.885l0.003,-0Z" style="fill:#485c70;fill-rule:nonzero;"/><path d="M98.242,125.65l-26.143,0c-3.283,0 -5.941,-2.661 -5.941,-5.941c-0,-3.279 2.661,-5.94 5.941,-5.94l26.143,-0c3.282,-0 5.94,2.661 5.94,5.94c0,3.283 -2.661,5.941 -5.94,5.941Z" style="fill:#5b778f;fill-rule:nonzero;"/><path d="M143.826,87.632l-1.291,0c-1.376,-1.837 -3.365,-3.21 -5.723,-3.8c-5.054,-1.263 -10.224,-2.109 -15.423,-2.529c5.786,-7.759 8.93,-17.166 8.93,-26.954c-0,-10.212 -3.504,-20.218 -9.868,-28.176c-0.814,-1.02 -2.304,-1.187 -3.327,-0.369c-1.019,0.817 -1.187,2.307 -0.369,3.327c5.777,7.225 8.832,15.947 8.832,25.218c0,12.863 -6.064,24.707 -16.08,32.27c-4.444,3.362 -7.607,7.977 -9.094,13.185c-1.512,-0.407 -0.046,-0.288 -28.308,-0.288c-0.748,0 -1.474,0.102 -2.166,0.289c-1.493,-5.215 -4.655,-9.83 -9.094,-13.189c-9.987,-7.541 -16.25,-19.495 -16.076,-32.809c0.435,-33.391 39.053,-51.63 65.133,-31.434c1.032,0.802 2.519,0.613 3.321,-0.423c0.802,-1.032 0.612,-2.519 -0.423,-3.321c-29.148,-22.572 -72.28,-2.171 -72.766,35.114c-0.131,10.016 3.014,19.638 8.924,27.558c-5.199,0.423 -10.367,1.265 -15.42,2.531c-2.358,0.59 -4.347,1.964 -5.723,3.801l-1.291,-0c-5.657,-0 -10.259,4.602 -10.259,10.259l-0,35.019c-0,1.307 1.06,2.367 2.367,2.367c1.307,0 2.368,-1.06 2.368,-2.367l-0,-35.019c-0,-2.822 2.127,-5.152 4.858,-5.48c-0.144,1.073 -0.093,0.003 -0.093,60.913c0,2.879 2.936,4.807 5.815,4.125l4.296,-1.022c28.071,-6.686 46.815,2.433 49.852,1.714c10.432,-2.488 26.462,-7.027 48.754,-1.714c4.223,1.007 5.921,1.786 8.103,0.413c1.275,-0.805 2.007,-2.086 2.007,-3.513c0,-60.907 0.052,-59.84 -0.092,-60.913c2.733,0.331 4.858,2.661 4.858,5.48l-0,56.465c-0,2.86 -1.31,5.489 -3.593,7.21c-4.132,3.118 -7.869,1.487 -11.496,0.451c-16.187,-4.631 -27.857,-1.196 -39.139,2.121c-10.003,2.942 -12.156,2.279 -19.915,-0.002c-18.172,-5.338 -25.729,-5.947 -42.705,-1.099c-5.774,1.648 -11.509,-2.68 -11.509,-8.683l-0,-12.115c-0,-1.307 -1.061,-2.368 -2.368,-2.368c-1.306,0 -2.367,1.061 -2.367,2.368l-0,12.118c-0,9.151 8.744,15.751 17.544,13.235c28.549,-8.156 37.267,3.207 51.371,3.207c12.134,0 25.243,-10.678 47.791,-4.229c13.475,3.851 21.124,-2.968 21.124,-12.213l-0,-56.466c-0.001,-5.656 -4.603,-10.259 -10.259,-10.259l-0.011,-0.004Zm-45.584,16.62c1.969,-0 3.573,1.603 3.573,3.573c-0,1.97 -1.604,3.573 -3.573,3.573l-26.143,0c-1.97,0 -3.574,-1.603 -3.574,-3.573c0,-1.97 1.604,-3.573 3.574,-3.573l26.143,-0Zm3.573,15.457c-0,1.97 -1.604,3.574 -3.573,3.574l-26.143,-0c-1.97,-0 -3.574,-1.604 -3.574,-3.574c0,-1.969 1.604,-3.573 3.574,-3.573l26.143,0c1.969,0 3.573,1.604 3.573,3.573Zm-16.645,15.458c-4.489,0 -8.182,-3.112 -9.217,-7.149l18.438,-0c-1.055,4.106 -4.789,7.149 -9.221,7.149Zm-50.401,16.651l-4.278,1.02c0,-61.655 -0.366,-59.767 0.66,-61.671c0.843,-1.483 2.077,-2.376 3.526,-2.739c5.922,-1.481 12.011,-2.355 18.116,-2.614c1.607,1.654 3.349,3.194 5.189,4.583c4.006,3.031 6.733,7.308 7.743,12.106c-1.568,1.875 -2.247,4.343 -1.802,6.805c-8.128,-0.628 -16.288,-0.209 -24.312,1.26c-1.285,0.235 -2.137,1.468 -1.904,2.756c0.236,1.288 1.468,2.137 2.756,1.903c8.381,-1.531 16.916,-1.862 25.398,-0.991c-1.098,1.25 -1.831,2.831 -2.02,4.574c-8.113,-0.616 -16.25,-0.195 -24.227,1.266c-1.285,0.235 -2.137,1.467 -1.903,2.755c0.235,1.288 1.467,2.137 2.755,1.904c8.005,-1.465 16.178,-1.831 24.312,-1.096c1.254,2.333 3.589,4 6.333,4.325c0.067,0.417 0.151,0.827 0.255,1.231c-10.474,-1.635 -21.351,-1.512 -31.749,0.388c-1.285,0.235 -2.137,1.468 -1.904,2.756c0.234,1.288 1.468,2.137 2.756,1.903c10.995,-2.007 22.554,-1.925 33.514,0.225c2.146,2.724 5.262,4.646 8.826,5.243l-0,13.138l-4.274,-1.02c-14.319,-3.409 -29.448,-3.409 -43.76,0.001l-0.006,-0.011Zm105.08,1.014c-2.57,-0.348 -22.201,-7.166 -48.037,-1.014l-4.274,1.02l-0,-13.138c2.601,-0.435 4.962,-1.578 6.884,-3.223c1.38,0.097 1.171,-0.767 12.26,-1.332c1.307,-0.067 2.311,-1.18 2.245,-2.484c-0.068,-1.307 -1.175,-2.314 -2.485,-2.241c-2.964,0.152 -5.416,0.259 -8.08,0.631c0.404,-0.982 0.7,-2.014 0.874,-3.09c6.916,-0.827 9.792,-9.325 4.811,-14.189c3.109,-3.037 3.361,-7.936 0.571,-11.266c1.004,-4.792 3.731,-9.069 7.743,-12.102c2.532,-1.91 4.246,-3.608 5.183,-4.584c6.108,0.261 12.197,1.133 18.122,2.614c1.44,0.36 2.696,1.262 3.526,2.74c1.026,1.906 0.66,-0.005 0.66,61.667l-0.003,-0.009Z" style="fill-rule:nonzero;"/><path d="M106.436,138.889l-0.505,0.026c-4.58,0.234 -7.102,0.363 -11.834,1.367c-1.278,0.27 -2.096,1.527 -1.825,2.806c0.271,1.278 1.528,2.096 2.807,1.824c4.567,-0.966 6.868,-1.051 11.603,-1.294c1.307,-0.067 2.311,-1.18 2.245,-2.484c-0.067,-1.304 -1.175,-2.314 -2.485,-2.241l-0.006,-0.004Z" style="fill-rule:nonzero;"/><path d="M76.142,141.294c-11.91,-2.506 -24.539,-2.673 -36.531,-0.483c-1.285,0.235 -2.137,1.468 -1.904,2.756c0.235,1.285 1.468,2.137 2.756,1.903c11.392,-2.083 23.394,-1.922 34.704,0.461c1.269,0.269 2.535,-0.543 2.806,-1.827c0.269,-1.279 -0.549,-2.535 -1.828,-2.803l-0.003,-0.007Z" style="fill-rule:nonzero;"/><path d="M131.064,117.964l-10.322,-2.952c-3.532,-1.01 -7.043,1.639 -7.043,5.313l0,14.827c0,2.452 1.648,4.637 4.006,5.312l10.325,2.952l0,-0c3.533,1.007 7.043,-1.638 7.043,-5.313l-0,-14.823c-0,-2.453 -1.648,-4.637 -4.006,-5.313l-0.003,-0.003Zm-1.042,20.767c-0.117,0.089 -0.363,0.223 -0.691,0.129l-10.325,-2.949c-0.338,-0.096 -0.572,-0.407 -0.572,-0.757c0,-15.449 -0.169,-15.089 0.314,-15.455c0.448,-0.338 0.125,-0.291 11.017,2.822c0.337,0.096 0.571,0.407 0.571,0.758c-0,15.448 0.17,15.091 -0.314,15.454l0,-0.002Z" style="fill-rule:nonzero;"/><path d="M64.194,47.218l0,3.788c0,1.307 1.061,2.367 2.368,2.367c1.307,0 2.367,-1.06 2.367,-2.367l0,-3.788c0,-1.307 -1.06,-2.367 -2.367,-2.367c-1.307,-0 -2.368,1.06 -2.368,2.367Z" style="fill-rule:nonzero;"/><path d="M103.617,47.218l0,3.788c0,1.307 1.061,2.367 2.368,2.367c1.307,0 2.367,-1.06 2.367,-2.367l0,-3.788c0,-1.307 -1.06,-2.367 -2.367,-2.367c-1.307,-0 -2.368,1.06 -2.368,2.367Z" style="fill-rule:nonzero;"/><path d="M89.684,49.336c-1.809,2.077 -5.016,2.077 -6.825,0c-0.858,-0.985 -2.354,-1.089 -3.339,-0.229c-0.985,0.858 -1.089,2.355 -0.23,3.339c3.694,4.237 10.272,4.237 13.965,0c0.859,-0.984 0.758,-2.481 -0.229,-3.339c-0.985,-0.859 -2.481,-0.758 -3.34,0.229l-0.002,0Z" style="fill-rule:nonzero;"/><path d="M129.369,20.589l9.507,-7.131c1.045,-0.783 1.26,-2.269 0.474,-3.314c-0.783,-1.045 -2.266,-1.256 -3.314,-0.474l-9.508,7.131c-1.045,0.786 -1.256,2.27 -0.474,3.315c0.783,1.044 2.27,1.256 3.315,0.473Z" style="fill-rule:nonzero;"/><path d="M135.136,33.421c0.225,1.127 1.215,1.903 2.32,1.903c0.154,0 0.31,-0.015 0.467,-0.046l11.885,-2.377c1.281,-0.256 2.115,-1.503 1.856,-2.784c-0.256,-1.282 -1.503,-2.115 -2.784,-1.856l-11.885,2.377c-1.281,0.256 -2.115,1.502 -1.856,2.784l-0.003,-0.001Z" style="fill-rule:nonzero;"/><path d="M150.218,52.149l-11.884,-4.754c-1.213,-0.486 -2.592,0.104 -3.078,1.319c-0.486,1.216 0.105,2.592 1.319,3.078l11.885,4.754c0.288,0.117 0.587,0.17 0.877,0.17c0.941,-0 1.828,-0.562 2.201,-1.49c0.486,-1.212 -0.105,-2.592 -1.32,-3.078l0,0.001Z" style="fill-rule:nonzero;"/><path d="M31.461,13.461l9.507,7.131c0.426,0.319 0.925,0.474 1.418,0.474c0.719,-0 1.429,-0.325 1.897,-0.947c0.786,-1.045 0.571,-2.529 -0.474,-3.315l-9.508,-7.13c-1.044,-0.783 -2.528,-0.572 -3.314,0.473c-0.783,1.045 -0.571,2.532 0.474,3.314Z" style="fill-rule:nonzero;"/><path d="M20.532,32.903l11.885,2.377c0.157,0.031 0.313,0.047 0.467,0.046c1.105,-0 2.093,-0.777 2.32,-1.903c0.257,-1.282 -0.574,-2.529 -1.856,-2.785l-11.884,-2.377c-1.282,-0.257 -2.529,0.575 -2.785,1.857c-0.255,1.281 0.575,2.528 1.857,2.784l-0.004,0.001Z" style="fill-rule:nonzero;"/><path d="M32,47.395l-11.884,4.754c-1.216,0.486 -1.806,1.862 -1.32,3.077c0.37,0.925 1.26,1.49 2.2,1.49c0.293,0 0.591,-0.054 0.878,-0.169l11.885,-4.754c1.215,-0.486 1.805,-1.863 1.319,-3.078c-0.486,-1.215 -1.866,-1.802 -3.078,-1.319l0,-0.001Z" style="fill-rule:nonzero;"/></g><path d="M234.819,114.449c-4.403,-0 -7.851,-1.267 -10.344,-3.801c-2.451,-2.534 -3.676,-6.065 -3.676,-10.593c-0,-4.112 0.893,-7.851 2.679,-11.216c1.786,-3.406 4.217,-6.106 7.291,-8.1c3.032,-1.994 6.397,-2.991 10.094,-2.991c3.489,-0 6.273,0.851 8.35,2.554c2.077,1.704 3.115,3.988 3.115,6.855c0,2.284 -0.685,4.382 -2.056,6.293c-1.412,1.911 -3.282,3.427 -5.608,4.549c-2.326,1.163 -4.902,1.744 -7.727,1.744c-3.489,0 -6.355,-0.789 -8.599,-2.367c0.084,2.658 1.018,4.798 2.804,6.418c1.745,1.661 4.009,2.492 6.792,2.492c1.704,0 3.448,-0.311 5.234,-0.935c1.745,-0.623 3.261,-1.453 4.549,-2.492c0.831,-0.706 1.6,-1.059 2.306,-1.059c0.581,-0 1.059,0.187 1.433,0.561c0.374,0.373 0.561,0.851 0.561,1.433c-0,1.287 -1.101,2.991 -3.303,5.109c-3.905,3.697 -8.536,5.546 -13.895,5.546Zm1.308,-20.5c2.077,-0 3.822,-0.437 5.234,-1.309c1.413,-0.872 2.119,-1.973 2.119,-3.302c0,-1.122 -0.478,-1.974 -1.433,-2.555c-0.914,-0.623 -2.181,-0.935 -3.801,-0.935c-2.16,0 -4.05,0.561 -5.67,1.683c-1.579,1.163 -2.721,2.762 -3.427,4.797c0.83,0.499 1.869,0.894 3.115,1.184c1.288,0.291 2.576,0.437 3.863,0.437Zm34.458,20.5c-2.16,-0 -4.175,-0.312 -6.044,-0.935c-1.828,-0.664 -3.323,-1.578 -4.486,-2.741c-1.163,-1.164 -1.745,-2.555 -1.745,-4.175c0,-0.873 0.208,-1.703 0.623,-2.493c0.457,-0.789 1.163,-1.184 2.119,-1.184c0.54,0 1.101,0.146 1.682,0.437c1.039,0.581 2.368,1.121 3.988,1.62c1.662,0.498 3.386,0.747 5.172,0.747c2.035,0 3.842,-0.29 5.421,-0.872c1.578,-0.582 2.368,-1.392 2.368,-2.43c-0,-0.831 -0.603,-1.413 -1.807,-1.745c-1.205,-0.332 -3.199,-0.706 -5.982,-1.121c-1.911,-0.374 -3.78,-0.79 -5.608,-1.247c-1.786,-0.457 -3.261,-1.246 -4.424,-2.367c-1.163,-1.164 -1.745,-2.846 -1.745,-5.048c0,-2.16 0.602,-4.237 1.807,-6.231c1.163,-1.994 2.949,-3.655 5.359,-4.985c2.368,-1.37 5.276,-2.056 8.723,-2.056c1.787,0 3.531,0.208 5.235,0.623c1.661,0.416 3.053,1.039 4.174,1.87c1.122,0.789 1.683,1.807 1.683,3.053c-0,1.038 -0.374,1.994 -1.122,2.866c-0.706,0.872 -1.537,1.579 -2.492,2.119c-0.997,0.54 -1.807,0.81 -2.43,0.81c-0.457,-0 -1.018,-0.312 -1.683,-0.935c-0.955,-0.831 -2.035,-1.392 -3.24,-1.682c-1.205,-0.333 -2.389,-0.499 -3.552,-0.499c-1.744,0 -3.157,0.27 -4.237,0.81c-1.08,0.499 -1.62,1.163 -1.62,1.994c0,0.748 0.457,1.35 1.371,1.807c0.914,0.457 2.035,0.789 3.365,0.997c1.329,0.208 2.617,0.395 3.863,0.561c3.365,0.498 6.023,1.308 7.976,2.43c1.994,1.122 2.991,3.116 2.991,5.982c-0,2.202 -0.623,4.382 -1.87,6.543c-1.246,2.201 -3.053,4.008 -5.421,5.421c-2.368,1.37 -5.172,2.056 -8.412,2.056Zm36.901,-0c-4.403,-0 -7.851,-1.267 -10.344,-3.801c-2.451,-2.534 -3.676,-6.065 -3.676,-10.593c-0,-4.112 0.893,-7.851 2.679,-11.216c1.787,-3.406 4.217,-6.106 7.291,-8.1c3.032,-1.994 6.397,-2.991 10.094,-2.991c3.489,-0 6.273,0.851 8.35,2.554c2.077,1.704 3.115,3.988 3.115,6.855c0,2.284 -0.685,4.382 -2.056,6.293c-1.412,1.911 -3.282,3.427 -5.608,4.549c-2.326,1.163 -4.902,1.744 -7.727,1.744c-3.489,0 -6.355,-0.789 -8.598,-2.367c0.083,2.658 1.017,4.798 2.804,6.418c1.744,1.661 4.008,2.492 6.791,2.492c1.704,0 3.448,-0.311 5.235,-0.935c1.744,-0.623 3.26,-1.453 4.548,-2.492c0.831,-0.706 1.6,-1.059 2.306,-1.059c0.581,-0 1.059,0.187 1.433,0.561c0.374,0.373 0.561,0.851 0.561,1.433c-0,1.287 -1.101,2.991 -3.303,5.109c-3.905,3.697 -8.536,5.546 -13.895,5.546Zm1.308,-20.5c2.077,-0 3.822,-0.437 5.235,-1.309c1.412,-0.872 2.118,-1.973 2.118,-3.302c0,-1.122 -0.478,-1.974 -1.433,-2.555c-0.914,-0.623 -2.181,-0.935 -3.801,-0.935c-2.16,0 -4.05,0.561 -5.67,1.683c-1.579,1.163 -2.721,2.762 -3.427,4.797c0.83,0.499 1.869,0.894 3.115,1.184c1.288,0.291 2.576,0.437 3.863,0.437Zm35.705,20.5c-3.573,-0 -6.128,-1.184 -7.665,-3.552c-1.537,-2.326 -2.305,-5.359 -2.305,-9.097c-0,-1.33 0.083,-2.638 0.249,-3.926c0.125,-1.288 0.27,-2.555 0.436,-3.801c0.166,-1.288 0.353,-2.555 0.561,-3.801c0.166,-1.204 0.312,-2.368 0.436,-3.489c-1.246,0.374 -2.471,0.561 -3.676,0.561c-1.288,-0 -1.932,-0.52 -1.932,-1.558c0,-1.122 0.499,-2.493 1.496,-4.113c0.997,-1.578 2.222,-3.157 3.676,-4.735c1.496,-1.579 2.991,-2.908 4.486,-3.988c1.454,-1.039 2.721,-1.558 3.801,-1.558c1.247,-0 1.87,1.101 1.87,3.302c-0,0.582 -0.042,1.164 -0.125,1.745c-0.083,0.623 -0.187,1.267 -0.311,1.932c1.121,-0.249 2.243,-0.457 3.364,-0.623c1.164,-0.166 2.264,-0.25 3.303,-0.25c1.329,0 2.347,0.229 3.053,0.686c0.748,0.457 1.122,1.35 1.122,2.679c-0,1.413 -0.333,2.804 -0.997,4.175c-0.665,1.412 -1.413,2.119 -2.243,2.119c-0.167,-0 -0.457,-0.021 -0.873,-0.063c-0.415,-0.083 -0.914,-0.187 -1.495,-0.311c-0.748,-0.166 -1.703,-0.333 -2.867,-0.499c-1.163,-0.166 -2.554,-0.249 -4.174,-0.249c-0.416,1.786 -0.79,3.635 -1.122,5.546c-0.291,1.869 -0.436,3.572 -0.436,5.109c-0,3.365 0.831,5.65 2.492,6.854c1.703,1.247 4.154,1.87 7.353,1.87c0.997,-0 1.703,0.145 2.118,0.436c0.374,0.332 0.561,0.914 0.561,1.745c0,1.911 -0.976,3.531 -2.928,4.86c-1.994,1.329 -4.404,1.994 -7.228,1.994Zm29.46,-0c-4.403,-0 -7.851,-1.267 -10.343,-3.801c-2.451,-2.534 -3.677,-6.065 -3.677,-10.593c0,-4.112 0.893,-7.851 2.68,-11.216c1.786,-3.406 4.216,-6.106 7.29,-8.1c3.032,-1.994 6.397,-2.991 10.094,-2.991c3.49,-0 6.273,0.851 8.35,2.554c2.077,1.704 3.116,3.988 3.116,6.855c-0,2.284 -0.686,4.382 -2.057,6.293c-1.412,1.911 -3.281,3.427 -5.608,4.549c-2.326,1.163 -4.901,1.744 -7.726,1.744c-3.49,0 -6.356,-0.789 -8.599,-2.367c0.083,2.658 1.018,4.798 2.804,6.418c1.745,1.661 4.009,2.492 6.792,2.492c1.703,0 3.448,-0.311 5.234,-0.935c1.745,-0.623 3.261,-1.453 4.549,-2.492c0.83,-0.706 1.599,-1.059 2.305,-1.059c0.582,-0 1.059,0.187 1.433,0.561c0.374,0.373 0.561,0.851 0.561,1.433c0,1.287 -1.101,2.991 -3.302,5.109c-3.905,3.697 -8.537,5.546 -13.896,5.546Zm1.309,-20.5c2.077,-0 3.822,-0.437 5.234,-1.309c1.412,-0.872 2.118,-1.973 2.118,-3.302c0,-1.122 -0.477,-1.974 -1.433,-2.555c-0.914,-0.623 -2.181,-0.935 -3.801,-0.935c-2.16,0 -4.05,0.561 -5.67,1.683c-1.579,1.163 -2.721,2.762 -3.427,4.797c0.831,0.499 1.869,0.894 3.115,1.184c1.288,0.291 2.576,0.437 3.864,0.437Zm28.414,43.43c-1.745,0 -3.095,-0.477 -4.051,-1.433c-0.997,-0.955 -1.495,-2.679 -1.495,-5.172c-0,-1.703 0.187,-3.821 0.561,-6.355c0.374,-2.576 0.831,-5.276 1.371,-8.101c0.373,-2.285 0.768,-4.673 1.183,-7.166c0.374,-2.492 0.686,-4.943 0.935,-7.352c0.249,-2.451 0.374,-4.632 0.374,-6.543c-0,-2.202 -0.249,-4.112 -0.748,-5.733c-0.498,-1.62 -1.495,-2.679 -2.991,-3.177c-0.581,-0.208 -1.101,-0.457 -1.557,-0.748c-0.457,-0.291 -0.686,-0.769 -0.686,-1.433c0,-0.79 0.312,-1.683 0.935,-2.68c0.623,-0.997 1.537,-1.848 2.741,-2.554c1.205,-0.748 2.555,-1.122 4.051,-1.122c1.994,0 3.364,0.685 4.112,2.056c0.748,1.371 1.122,3.157 1.122,5.359c-0,0.665 -0.021,1.329 -0.063,1.994c-0.083,0.665 -0.166,1.35 -0.249,2.056c1.662,-3.281 3.884,-6.044 6.668,-8.287c2.741,-2.243 5.857,-3.365 9.346,-3.365c3.49,0 6.252,1.184 8.288,3.552c1.993,2.368 2.99,5.545 2.99,9.533c0,2.991 -0.477,5.899 -1.433,8.724c-0.914,2.825 -2.222,5.359 -3.925,7.602c-1.662,2.285 -3.677,4.092 -6.044,5.421c-2.368,1.329 -5.006,1.994 -7.914,1.994c-2.077,-0 -3.905,-0.353 -5.483,-1.059c-1.579,-0.748 -2.95,-1.704 -4.113,-2.867c-0.208,1.537 -0.415,3.365 -0.623,5.484c-0.208,2.16 -0.312,4.174 -0.312,6.044c0,2.16 0.25,3.842 0.748,5.047c0.499,1.246 1.475,2.181 2.929,2.804c0.623,0.291 0.935,0.748 0.935,1.371c-0,0.498 -0.229,1.225 -0.686,2.181c-0.457,0.997 -1.225,1.911 -2.305,2.741c-1.08,0.79 -2.617,1.184 -4.611,1.184Zm15.577,-32.339c3.282,-0 5.837,-1.039 7.665,-3.116c1.786,-2.118 2.679,-4.548 2.679,-7.29c-0,-2.368 -0.644,-4.216 -1.932,-5.546c-1.246,-1.287 -2.949,-1.931 -5.109,-1.931c-2.202,-0 -4.154,0.644 -5.857,1.931c-1.704,1.33 -3.137,3.033 -4.3,5.11c-1.205,2.118 -2.181,4.362 -2.929,6.729c2.908,2.742 6.169,4.113 9.783,4.113Zm28.913,32.339c-1.745,0 -3.095,-0.477 -4.051,-1.433c-0.997,-0.955 -1.495,-2.679 -1.495,-5.172c-0,-1.703 0.187,-3.821 0.561,-6.355c0.374,-2.576 0.831,-5.276 1.371,-8.101c0.373,-2.285 0.768,-4.673 1.183,-7.166c0.374,-2.492 0.686,-4.943 0.935,-7.352c0.249,-2.451 0.374,-4.632 0.374,-6.543c0,-2.202 -0.249,-4.112 -0.748,-5.733c-0.498,-1.62 -1.495,-2.679 -2.991,-3.177c-0.581,-0.208 -1.1,-0.457 -1.557,-0.748c-0.457,-0.291 -0.686,-0.769 -0.686,-1.433c0,-0.79 0.312,-1.683 0.935,-2.68c0.623,-0.997 1.537,-1.848 2.741,-2.554c1.205,-0.748 2.555,-1.122 4.051,-1.122c1.994,0 3.365,0.685 4.112,2.056c0.748,1.371 1.122,3.157 1.122,5.359c-0,0.665 -0.021,1.329 -0.062,1.994c-0.084,0.665 -0.167,1.35 -0.25,2.056c1.662,-3.281 3.884,-6.044 6.668,-8.287c2.741,-2.243 5.857,-3.365 9.346,-3.365c3.49,0 6.252,1.184 8.288,3.552c1.994,2.368 2.99,5.545 2.99,9.533c0,2.991 -0.477,5.899 -1.433,8.724c-0.914,2.825 -2.222,5.359 -3.925,7.602c-1.662,2.285 -3.677,4.092 -6.044,5.421c-2.368,1.329 -5.006,1.994 -7.914,1.994c-2.077,-0 -3.905,-0.353 -5.483,-1.059c-1.579,-0.748 -2.95,-1.704 -4.113,-2.867c-0.208,1.537 -0.415,3.365 -0.623,5.484c-0.208,2.16 -0.311,4.174 -0.311,6.044c-0,2.16 0.249,3.842 0.747,5.047c0.499,1.246 1.475,2.181 2.929,2.804c0.623,0.291 0.935,0.748 0.935,1.371c-0,0.498 -0.229,1.225 -0.686,2.181c-0.457,0.997 -1.225,1.911 -2.305,2.741c-1.08,0.79 -2.617,1.184 -4.611,1.184Zm15.577,-32.339c3.282,-0 5.837,-1.039 7.665,-3.116c1.786,-2.118 2.679,-4.548 2.679,-7.29c-0,-2.368 -0.644,-4.216 -1.932,-5.546c-1.246,-1.287 -2.949,-1.931 -5.109,-1.931c-2.202,-0 -4.154,0.644 -5.857,1.931c-1.704,1.33 -3.137,3.033 -4.3,5.11c-1.205,2.118 -2.181,4.362 -2.928,6.729c2.907,2.742 6.168,4.113 9.782,4.113Zm31.305,-35.081c-1.62,-0.042 -2.928,-0.54 -3.925,-1.496c-0.997,-0.914 -1.496,-2.222 -1.496,-3.925c0.042,-1.786 0.644,-3.24 1.807,-4.362c1.163,-1.163 2.659,-1.703 4.487,-1.62c1.661,0.041 2.97,0.54 3.925,1.495c0.997,0.914 1.454,2.223 1.371,3.926c-0.041,1.745 -0.623,3.178 -1.745,4.299c-1.08,1.122 -2.554,1.683 -4.424,1.683Zm0.063,44.241c-1.745,-0 -3.116,-0.478 -4.113,-1.434c-0.955,-0.955 -1.433,-2.596 -1.433,-4.922c0,-1.329 0.125,-2.638 0.374,-3.926c0.249,-1.287 0.561,-2.534 0.935,-3.738c0.373,-1.288 0.706,-2.597 0.997,-3.926c0.249,-1.371 0.373,-2.804 0.373,-4.299c0,-1.039 -0.145,-2.036 -0.436,-2.991c-0.291,-0.956 -0.934,-1.683 -1.931,-2.181c-0.748,-0.374 -1.392,-0.789 -1.932,-1.246c-0.582,-0.416 -0.872,-0.977 -0.872,-1.683c-0,-0.831 0.394,-1.703 1.183,-2.617c0.748,-0.955 1.745,-1.765 2.991,-2.43c1.247,-0.665 2.534,-0.997 3.864,-0.997c1.454,0 2.513,0.374 3.178,1.122c0.664,0.789 1.121,1.765 1.37,2.928c0.25,1.163 0.374,2.347 0.374,3.552c0,1.869 -0.145,3.697 -0.436,5.483c-0.291,1.745 -0.581,3.386 -0.872,4.923c-0.25,1.08 -0.436,2.098 -0.561,3.053c-0.125,0.914 -0.187,1.786 -0.187,2.617c-0,1.454 0.353,2.534 1.059,3.24c0.706,0.748 1.703,1.434 2.991,2.057c0.499,0.29 0.748,0.727 0.748,1.308c-0,0.457 -0.229,1.184 -0.685,2.181c-0.457,0.997 -1.247,1.89 -2.368,2.679c-1.163,0.831 -2.7,1.247 -4.611,1.247Zm26.868,0.249c-4.071,-0 -7.249,-1.226 -9.533,-3.676c-2.285,-2.493 -3.428,-5.941 -3.428,-10.344c0,-4.362 0.914,-8.267 2.742,-11.715c1.87,-3.406 4.445,-6.106 7.727,-8.1c3.24,-1.994 6.916,-2.991 11.029,-2.991c2.825,0 5.047,0.478 6.667,1.433c1.62,0.914 2.43,2.181 2.43,3.801c0,1.454 -0.706,2.887 -2.118,4.3c-0.499,0.54 -1.164,1.017 -1.994,1.433c-0.873,0.457 -1.537,0.685 -1.994,0.685c-0.54,0 -0.976,-0.207 -1.309,-0.623c-0.581,-0.665 -1.329,-1.288 -2.243,-1.869c-0.955,-0.582 -2.264,-0.873 -3.926,-0.873c-2.866,0 -5.192,0.977 -6.978,2.929c-1.828,1.952 -2.742,4.507 -2.742,7.664c-0,2.825 0.81,5.11 2.43,6.855c1.662,1.744 3.822,2.617 6.48,2.617c1.413,-0 2.929,-0.229 4.549,-0.686c1.662,-0.498 3.136,-1.225 4.424,-2.181c0.665,-0.581 1.329,-0.872 1.994,-0.872c1.163,-0 1.745,0.727 1.745,2.181c-0,1.911 -0.956,3.738 -2.867,5.483c-1.453,1.371 -3.385,2.472 -5.794,3.303c-2.41,0.83 -4.84,1.246 -7.291,1.246Zm25.859,-0.187c-0.831,-0 -1.537,-0.187 -2.118,-0.561c-0.582,-0.374 -0.81,-0.872 -0.686,-1.495c0.873,-4.653 1.62,-9.389 2.243,-14.207c0.582,-4.777 0.873,-9.617 0.873,-14.519c-0,-4.278 -0.146,-8.162 -0.436,-11.652c-0.291,-3.489 -1.226,-6.833 -2.804,-10.032c-0.291,-0.665 -0.52,-1.225 -0.686,-1.682c-0.166,-0.457 -0.249,-0.893 -0.249,-1.309c-0,-1.121 0.665,-2.201 1.994,-3.24c1.288,-1.039 2.659,-1.558 4.112,-1.558c2.036,0 3.428,1.288 4.175,3.864c0.748,2.533 1.122,6.314 1.122,11.34c-0,5.982 -0.332,11.195 -0.997,15.64c-0.706,4.445 -1.329,7.831 -1.869,10.157l0.373,0.187c1.164,-3.074 2.576,-5.961 4.238,-8.661c1.661,-2.659 3.593,-4.798 5.794,-6.418c2.202,-1.662 4.757,-2.493 7.665,-2.493c3.074,0 5.421,0.935 7.041,2.804c1.578,1.869 2.368,4.175 2.368,6.917c-0,1.163 -0.104,2.284 -0.312,3.364c-0.249,1.08 -0.519,2.098 -0.81,3.054c-0.291,0.955 -0.561,1.91 -0.81,2.866c-0.208,0.955 -0.311,1.932 -0.311,2.929c-0,1.786 0.436,3.24 1.308,4.361c0.872,1.163 2.036,1.973 3.489,2.43c0.416,0.125 0.727,0.291 0.935,0.499c0.166,0.208 0.249,0.561 0.249,1.059c0,0.54 -0.166,1.309 -0.498,2.306c-0.332,0.955 -0.976,1.869 -1.932,2.741c-0.914,0.831 -2.285,1.247 -4.112,1.247c-2.327,-0 -4.113,-0.831 -5.359,-2.493c-1.288,-1.661 -1.932,-3.801 -1.932,-6.418c0,-1.288 0.125,-2.596 0.374,-3.925c0.249,-1.33 0.561,-2.597 0.935,-3.801c0.291,-1.247 0.54,-2.41 0.748,-3.49c0.249,-1.08 0.373,-1.994 0.373,-2.741c0,-2.659 -1.391,-3.988 -4.174,-3.988c-2.327,-0 -4.383,0.83 -6.169,2.492c-1.786,1.662 -3.303,3.739 -4.549,6.231c-1.246,2.534 -2.264,5.151 -3.053,7.851l-0,2.929c-0,2.16 -0.644,3.946 -1.932,5.359c-1.246,1.371 -2.783,2.056 -4.611,2.056Z" style="fill:#ffe1ce;fill-rule:nonzero;stroke:#000;stroke-width:1.46px;"/><path d="M267.388,167.767c-11.35,0.698 -22.844,-0.08 -34.113,-1.347c-12.181,-1.369 -30.709,-3.64 -38.975,-6.869c-5.737,-2.242 -8.709,-8.217 -10.619,-12.507c-1.857,-4.173 -1.067,-8.938 -0.837,-13.233c0.226,-4.216 1.67,-8.342 2.217,-12.539c1.304,-10.009 4.758,-35.528 5.608,-47.515c0.575,-8.124 0.397,-17.821 -0.513,-24.406c-0.714,-5.164 -3.056,-11.713 -4.948,-15.099c-1.233,-2.207 -5.176,-3.926 -6.407,-5.218c-0.675,-0.71 -1.31,-1.694 -0.978,-2.539c0.565,-1.438 2.234,-4.465 4.369,-6.091c2.51,-1.912 6.933,-4.121 10.694,-5.381c3.733,-1.252 8.547,-2.919 11.867,-2.183c3.32,0.736 6.831,3.718 8.051,6.599c1.788,4.222 2.435,13.148 2.674,18.732c0.211,4.932 -0.629,9.861 -1.239,14.772c-0.837,6.744 -2.531,17.124 -3.782,25.687c-1.26,8.63 -3.053,17.44 -3.782,26.093c-0.723,8.59 -3.365,20.04 -0.589,25.822c2.414,5.026 10.696,7.214 17.25,8.874c7.516,1.904 20.216,2.009 27.846,2.55c5.959,0.422 11.95,0.848 17.931,0.692c7.259,-0.189 17.387,-0.567 25.625,-1.827c8.149,-1.247 19.366,-4.662 23.8,-5.737c0.938,-0.227 1.842,-0.551 2.803,-0.71c1.082,-0.179 2.543,-0.733 3.685,-0.362c1.25,0.406 3.058,1.572 3.814,2.798c1.059,1.719 3.805,5.117 2.543,7.514c-2.153,4.086 -7.389,14.051 -15.462,17.007c-10.666,3.905 -34.759,5.577 -48.533,6.423Z" style="fill:#ffe1ce;fill-rule:nonzero;stroke:#000;stroke-width:3.63px;"/></svg>