<?xml version="1.0" encoding="UTF-8" standalone="no"?><!DOCTYPE svg PUBLIC "-//W3C//DTD SVG 1.1//EN" "http://www.w3.org/Graphics/SVG/1.1/DTD/svg11.dtd"><svg width="100%" height="100%" viewBox="0 0 180 180" version="1.1" xmlns="http://www.w3.org/2000/svg" xmlns:xlink="http://www.w3.org/1999/xlink" xml:space="preserve" xmlns:serif="http://www.serif.com/" style="fill-rule:evenodd;clip-rule:evenodd;stroke-linejoin:round;stroke-miterlimit:2;"><g><path d="M89.99,90l-58.656,-0c-4.359,-0 -7.892,3.532 -7.892,7.891l0,56.468c0,7.573 7.248,13.037 14.527,10.957l3.58,-1.023c9.911,-2.831 20.42,-2.831 30.335,0l11.01,3.147c4.64,1.326 9.555,1.326 14.195,0c12.75,-3.642 24.24,-8.033 41.345,-3.147l3.58,1.023c7.279,2.08 14.527,-3.387 14.527,-10.957l-0,-56.465c-0,-4.359 -3.533,-7.891 -7.892,-7.891l-58.659,-0.003Z" style="fill:#f8883f;fill-rule:nonzero;"/><path d="M147.036,93.78l-0,59.541c-0,1.357 -1.559,2.14 -2.898,1.821l-4.296,-1.022c-22.024,-5.247 -37.993,-1.112 -49.852,1.714l-0,-68.215l5.972,-1.493c14.805,-3.699 30.291,-3.699 45.095,-0.001c3.514,0.878 5.979,4.035 5.979,7.655Z" style="fill:#dbdafd;fill-rule:nonzero;"/><path d="M32.944,93.781l-0,59.54c-0,1.357 1.559,2.14 2.898,1.821l4.296,-1.022c22.023,-5.247 37.993,-1.112 49.855,1.714l0,-68.215l-5.972,-1.493c-14.805,-3.699 -30.291,-3.699 -45.095,-0.001c-3.514,0.878 -5.979,4.035 -5.979,7.655l-0.003,0.001Z" style="fill:#cacafd;fill-rule:nonzero;"/><path d="M133.5,141.136l-10.325,-2.951c-1.354,-0.388 -2.288,-1.626 -2.288,-3.033l-0,-14.824c-0,-2.096 2.007,-3.611 4.024,-3.033l10.326,2.951c1.354,0.388 2.288,1.626 2.288,3.037l0,14.823c0,2.096 -2.007,3.611 -4.025,3.037l0,-0.007Z" style="fill:#cacafd;fill-rule:nonzero;"/><path d="M132.771,54.349c0,13.955 -6.682,26.348 -17.02,34.157c-5.704,4.316 -9.123,10.979 -9.123,18.132l-23.428,-0c-3.538,-7.551 -8.157,-17.21 -14.186,-29.562c-28.078,-57.538 33.009,-63.795 33.009,-63.795c17.768,5.199 30.748,21.62 30.748,41.068Z" style="fill:#fcec78;fill-rule:nonzero;"/><path d="M97.342,106.638l-23.991,-0c0,-7.276 -3.522,-13.902 -9.122,-18.132c-10.48,-7.913 -17.2,-20.54 -17.017,-34.728c0.366,-28.104 27.633,-48.442 54.811,-40.497c-17.554,5.149 -30.572,21.311 -30.821,40.497c-0.183,14.188 6.537,26.815 17.017,34.728c5.603,4.233 9.123,10.859 9.123,18.132Z" style="fill:#ffcf6b;fill-rule:nonzero;"/><path d="M56.713,58.108c0,-4.076 4.149,-7.38 9.268,-7.38c5.118,0 9.268,3.304 9.268,7.38c-0,4.076 -4.15,7.381 -9.268,7.381c-5.119,-0 -9.268,-3.305 -9.268,-7.381Z" style="fill:#ffa1ac;fill-opacity:0.97;fill-rule:nonzero;"/><path d="M106.938,58.108c-0,-4.076 4.149,-7.38 9.267,-7.38c5.119,0 9.268,3.304 9.268,7.38c0,4.076 -4.149,7.381 -9.268,7.381c-5.118,-0 -9.267,-3.305 -9.267,-7.381Z" style="fill:#ffa1ac;fill-rule:nonzero;"/><path d="M103.061,101.881l-26.143,-0c-3.282,-0 -5.94,2.661 -5.94,5.941c-0,3.279 2.661,5.94 5.94,5.94l13.072,3.801l13.071,-3.801c3.283,0 5.941,-2.661 5.941,-5.94c0,-3.28 -2.661,-5.941 -5.941,-5.941Z" style="fill:#7a8fa5;fill-rule:nonzero;"/><path d="M89.99,137.532c-6.563,-0 -11.885,-5.319 -11.885,-11.885l0,-2.377l23.766,0l0,2.377c0,6.563 -5.319,11.885 -11.884,11.885l0.003,-0Z" style="fill:#485c70;fill-rule:nonzero;"/><path d="M103.061,125.65l-26.143,0c-3.282,0 -5.94,-2.661 -5.94,-5.941c-0,-3.279 2.661,-5.94 5.94,-5.94l26.143,-0c3.283,-0 5.941,2.661 5.941,5.94c0,3.283 -2.661,5.941 -5.941,5.941Z" style="fill:#5b778f;fill-rule:nonzero;"/><path d="M148.646,87.632l-1.291,0c-1.376,-1.837 -3.365,-3.21 -5.723,-3.8c-5.054,-1.263 -10.224,-2.109 -15.423,-2.529c5.786,-7.759 8.93,-17.166 8.93,-26.954c-0,-10.212 -3.504,-20.218 -9.868,-28.176c-0.814,-1.02 -2.304,-1.187 -3.327,-0.369c-1.019,0.817 -1.187,2.307 -0.369,3.327c5.776,7.225 8.832,15.947 8.832,25.218c0,12.863 -6.064,24.707 -16.08,32.27c-4.444,3.362 -7.607,7.977 -9.094,13.185c-1.512,-0.407 -0.046,-0.288 -28.308,-0.288c-0.748,0 -1.474,0.102 -2.166,0.289c-1.493,-5.215 -4.656,-9.83 -9.094,-13.189c-9.987,-7.541 -16.25,-19.495 -16.076,-32.809c0.435,-33.391 39.053,-51.63 65.133,-31.434c1.032,0.802 2.519,0.613 3.321,-0.423c0.801,-1.032 0.612,-2.519 -0.423,-3.321c-29.148,-22.572 -72.28,-2.171 -72.766,35.114c-0.131,10.016 3.014,19.638 8.923,27.558c-5.199,0.423 -10.366,1.265 -15.42,2.531c-2.358,0.59 -4.346,1.964 -5.723,3.801l-1.291,-0c-5.656,-0 -10.259,4.602 -10.259,10.259l0,35.019c0,1.307 1.061,2.367 2.368,2.367c1.307,0 2.367,-1.06 2.367,-2.367l0,-35.019c0,-2.822 2.128,-5.152 4.858,-5.48c-0.144,1.073 -0.092,0.003 -0.092,60.913c-0,2.879 2.936,4.807 5.814,4.125l4.296,-1.022c28.072,-6.686 46.816,2.433 49.853,1.714c10.432,-2.488 26.461,-7.027 48.753,-1.714c4.224,1.007 5.922,1.786 8.103,0.413c1.276,-0.805 2.008,-2.086 2.008,-3.513c-0,-60.907 0.051,-59.84 -0.093,-60.913c2.734,0.331 4.858,2.661 4.858,5.48l0,56.465c0,2.86 -1.31,5.489 -3.592,7.21c-4.132,3.118 -7.869,1.487 -11.496,0.451c-16.187,-4.631 -27.857,-1.196 -39.139,2.121c-10.003,2.942 -12.156,2.279 -19.915,-0.002c-18.172,-5.338 -25.729,-5.947 -42.705,-1.099c-5.774,1.648 -11.509,-2.68 -11.509,-8.683l-0,-12.115c-0,-1.307 -1.061,-2.368 -2.368,-2.368c-1.307,0 -2.367,1.061 -2.367,2.368l-0,12.118c-0,9.151 8.744,15.751 17.544,13.235c28.548,-8.156 37.267,3.207 51.371,3.207c12.134,0 25.243,-10.678 47.791,-4.229c13.475,3.851 21.124,-2.968 21.124,-12.213l-0,-56.466c-0.001,-5.656 -4.603,-10.259 -10.259,-10.259l-0.011,-0.004Zm-45.585,16.62c1.97,-0 3.574,1.603 3.574,3.573c-0,1.97 -1.604,3.573 -3.574,3.573l-26.143,0c-1.969,0 -3.573,-1.603 -3.573,-3.573c0,-1.97 1.604,-3.573 3.573,-3.573l26.143,-0Zm3.574,15.457c-0,1.97 -1.604,3.574 -3.574,3.574l-26.143,-0c-1.969,-0 -3.573,-1.604 -3.573,-3.574c0,-1.969 1.604,-3.573 3.573,-3.573l26.143,0c1.97,0 3.574,1.604 3.574,3.573Zm-16.645,15.458c-4.489,0 -8.182,-3.112 -9.217,-7.149l18.437,-0c-1.054,4.106 -4.788,7.149 -9.22,7.149Zm-50.402,16.651l-4.277,1.02c0,-61.655 -0.366,-59.767 0.66,-61.671c0.843,-1.483 2.077,-2.376 3.526,-2.739c5.922,-1.481 12.011,-2.355 18.116,-2.614c1.606,1.654 3.349,3.194 5.189,4.583c4.006,3.031 6.733,7.308 7.743,12.106c-1.569,1.875 -2.247,4.343 -1.802,6.805c-8.128,-0.628 -16.288,-0.209 -24.312,1.26c-1.285,0.235 -2.137,1.468 -1.904,2.756c0.235,1.288 1.468,2.137 2.756,1.903c8.381,-1.531 16.916,-1.862 25.398,-0.991c-1.099,1.25 -1.831,2.831 -2.02,4.574c-8.113,-0.616 -16.25,-0.195 -24.227,1.266c-1.285,0.235 -2.137,1.467 -1.904,2.755c0.236,1.288 1.468,2.137 2.756,1.904c8.005,-1.465 16.178,-1.831 24.312,-1.096c1.253,2.333 3.589,4 6.332,4.325c0.068,0.417 0.152,0.827 0.256,1.231c-10.474,-1.635 -21.351,-1.512 -31.749,0.388c-1.285,0.235 -2.137,1.468 -1.904,2.756c0.234,1.288 1.468,2.137 2.756,1.903c10.994,-2.007 22.554,-1.925 33.514,0.225c2.146,2.724 5.262,4.646 8.825,5.243l0,13.138l-4.274,-1.02c-14.318,-3.409 -29.448,-3.409 -43.76,0.001l-0.006,-0.011Zm105.081,1.014c-2.57,-0.348 -22.201,-7.166 -48.038,-1.014l-4.274,1.02l0,-13.138c2.601,-0.435 4.963,-1.578 6.885,-3.223c1.379,0.097 1.171,-0.767 12.26,-1.332c1.307,-0.067 2.311,-1.18 2.244,-2.484c-0.067,-1.307 -1.174,-2.314 -2.484,-2.241c-2.964,0.152 -5.416,0.259 -8.081,0.631c0.404,-0.982 0.701,-2.014 0.875,-3.09c6.916,-0.827 9.791,-9.325 4.81,-14.189c3.11,-3.037 3.362,-7.936 0.572,-11.266c1.004,-4.792 3.731,-9.069 7.743,-12.102c2.531,-1.91 4.245,-3.608 5.183,-4.584c6.108,0.261 12.197,1.133 18.122,2.614c1.439,0.36 2.696,1.262 3.526,2.74c1.026,1.906 0.66,-0.005 0.66,61.667l-0.003,-0.009Z" style="fill-rule:nonzero;"/><path d="M111.256,138.889l-0.505,0.026c-4.58,0.234 -7.102,0.363 -11.834,1.367c-1.279,0.27 -2.096,1.527 -1.825,2.806c0.271,1.278 1.528,2.096 2.806,1.824c4.568,-0.966 6.869,-1.051 11.604,-1.294c1.307,-0.067 2.311,-1.18 2.244,-2.484c-0.066,-1.304 -1.174,-2.314 -2.484,-2.241l-0.006,-0.004Z" style="fill-rule:nonzero;"/><path d="M80.962,141.294c-11.91,-2.506 -24.539,-2.673 -36.531,-0.483c-1.285,0.235 -2.137,1.468 -1.904,2.756c0.235,1.285 1.468,2.137 2.756,1.903c11.392,-2.083 23.394,-1.922 34.704,0.461c1.269,0.269 2.534,-0.543 2.806,-1.827c0.269,-1.279 -0.549,-2.535 -1.828,-2.803l-0.003,-0.007Z" style="fill-rule:nonzero;"/><path d="M135.884,117.964l-10.322,-2.952c-3.533,-1.01 -7.043,1.639 -7.043,5.313l0,14.827c0,2.452 1.648,4.637 4.006,5.312l10.325,2.952l0,-0c3.532,1.007 7.043,-1.638 7.043,-5.313l-0,-14.823c-0,-2.453 -1.648,-4.637 -4.006,-5.313l-0.003,-0.003Zm-1.042,20.767c-0.117,0.089 -0.363,0.223 -0.691,0.129l-10.325,-2.949c-0.338,-0.096 -0.572,-0.407 -0.572,-0.757c0,-15.449 -0.169,-15.089 0.314,-15.455c0.448,-0.338 0.125,-0.291 11.016,2.822c0.338,0.096 0.572,0.407 0.572,0.758c-0,15.448 0.169,15.091 -0.314,15.454l0,-0.002Z" style="fill-rule:nonzero;"/><path d="M69.014,47.218l0,3.788c0,1.307 1.061,2.367 2.368,2.367c1.307,0 2.367,-1.06 2.367,-2.367l0,-3.788c0,-1.307 -1.06,-2.367 -2.367,-2.367c-1.307,-0 -2.368,1.06 -2.368,2.367Z" style="fill-rule:nonzero;"/><path d="M108.437,47.218l0,3.788c0,1.307 1.061,2.367 2.368,2.367c1.306,0 2.367,-1.06 2.367,-2.367l-0,-3.788c-0,-1.307 -1.061,-2.367 -2.367,-2.367c-1.307,-0 -2.368,1.06 -2.368,2.367Z" style="fill-rule:nonzero;"/><path d="M94.504,49.336c-1.809,2.077 -5.016,2.077 -6.825,0c-0.858,-0.985 -2.355,-1.089 -3.339,-0.229c-0.985,0.858 -1.089,2.355 -0.23,3.339c3.693,4.237 10.272,4.237 13.965,0c0.858,-0.984 0.757,-2.481 -0.23,-3.339c-0.984,-0.859 -2.481,-0.758 -3.339,0.229l-0.002,0Z" style="fill-rule:nonzero;"/><path d="M134.189,20.589l9.507,-7.131c1.045,-0.783 1.26,-2.269 0.474,-3.314c-0.783,-1.045 -2.267,-1.256 -3.315,-0.474l-9.507,7.131c-1.045,0.786 -1.257,2.27 -0.474,3.315c0.783,1.044 2.27,1.256 3.315,0.473Z" style="fill-rule:nonzero;"/><path d="M139.956,33.421c0.225,1.127 1.215,1.903 2.32,1.903c0.154,0 0.31,-0.015 0.467,-0.046l11.885,-2.377c1.281,-0.256 2.115,-1.503 1.856,-2.784c-0.257,-1.282 -1.503,-2.115 -2.784,-1.856l-11.885,2.377c-1.282,0.256 -2.115,1.502 -1.856,2.784l-0.003,-0.001Z" style="fill-rule:nonzero;"/><path d="M155.038,52.149l-11.885,-4.754c-1.212,-0.486 -2.591,0.104 -3.077,1.319c-0.486,1.216 0.104,2.592 1.319,3.078l11.885,4.754c0.288,0.117 0.587,0.17 0.877,0.17c0.941,-0 1.828,-0.562 2.2,-1.49c0.487,-1.212 -0.105,-2.592 -1.319,-3.078l-0,0.001Z" style="fill-rule:nonzero;"/><path d="M36.28,13.461l9.508,7.131c0.426,0.319 0.925,0.474 1.417,0.474c0.72,-0 1.43,-0.325 1.897,-0.947c0.786,-1.045 0.572,-2.529 -0.473,-3.315l-9.508,-7.13c-1.045,-0.783 -2.528,-0.572 -3.314,0.473c-0.783,1.045 -0.572,2.532 0.473,3.314Z" style="fill-rule:nonzero;"/><path d="M25.352,32.903l11.885,2.377c0.156,0.031 0.313,0.047 0.467,0.046c1.105,-0 2.093,-0.777 2.32,-1.903c0.256,-1.282 -0.574,-2.529 -1.856,-2.785l-11.885,-2.377c-1.281,-0.257 -2.528,0.575 -2.784,1.857c-0.255,1.281 0.575,2.528 1.856,2.784l-0.003,0.001Z" style="fill-rule:nonzero;"/><path d="M36.82,47.395l-11.884,4.754c-1.216,0.486 -1.806,1.862 -1.32,3.077c0.369,0.925 1.26,1.49 2.2,1.49c0.293,0 0.59,-0.054 0.878,-0.169l11.884,-4.754c1.216,-0.486 1.806,-1.863 1.32,-3.078c-0.486,-1.215 -1.866,-1.802 -3.078,-1.319l0,-0.001Z" style="fill-rule:nonzero;"/></g></svg>